<svg width="263" height="76" viewBox="0 0 263 76" fill="none" xmlns="http://www.w3.org/2000/svg">
<path d="M76.1542 40.3563C76.1753 40.2721 76.1858 40.2089 76.1858 40.1668C76.2068 40.1247 76.1753 40.0721 76.091 40.0089C76.0489 39.8615 76.0805 39.7667 76.1858 39.7246C76.2911 39.6825 76.3964 39.6404 76.5017 39.5983C76.6069 38.3348 76.8175 37.1871 77.1334 36.1553C77.4703 35.1024 77.8283 34.0811 78.2073 33.0914C78.6074 32.1017 78.997 31.1119 79.376 30.1222C79.7761 29.1114 80.1025 28.0164 80.3552 26.8372C80.629 26.5634 80.8501 26.237 81.0186 25.858C81.2081 25.479 81.3871 25.0999 81.5555 24.7209C81.7451 24.3208 81.9556 23.9417 82.1873 23.5838C82.44 23.2258 82.7769 22.931 83.198 22.6993C83.3876 22.7204 83.556 22.7625 83.7034 22.8257C83.8719 22.8678 84.0298 22.9204 84.1772 22.9836C84.3246 23.0468 84.4826 23.0994 84.651 23.1415C84.8195 23.1837 84.9985 23.2047 85.188 23.2047C85.2722 23.31 85.346 23.4363 85.4091 23.5838C85.4723 23.7101 85.5565 23.8259 85.6618 23.9312L86.2304 23.8364C86.5041 24.0681 86.7463 24.3629 86.9569 24.7209C87.1675 25.0578 87.3149 25.4158 87.3991 25.7948C87.4833 26.1528 87.4728 26.5108 87.3675 26.8688C87.2622 27.2057 87.0201 27.4689 86.641 27.6584C86.6621 27.7848 86.6621 27.8796 86.641 27.9427C86.62 28.0059 86.5884 28.0691 86.5462 28.1323C86.5252 28.1744 86.5147 28.227 86.5147 28.2902C86.5147 28.3323 86.5568 28.3955 86.641 28.4797C86.4094 28.6692 86.1988 28.9114 86.0093 29.2062C85.8198 29.48 85.6618 29.7748 85.5355 30.0906C85.4091 30.4065 85.3038 30.7224 85.2196 31.0382C85.1564 31.3541 85.1143 31.6489 85.0933 31.9227C85.7039 31.2909 86.4199 30.7013 87.2412 30.1538C88.0624 29.6063 88.7784 29.0904 89.3891 28.6061C89.8734 28.2691 90.2945 27.9533 90.6525 27.6584C91.0316 27.3426 91.4106 27.0583 91.7897 26.8056C92.1687 26.5319 92.5583 26.2792 92.9584 26.0475C93.3795 25.7948 93.8007 25.5211 94.2218 25.2263C94.4324 25.142 94.5904 25.121 94.6956 25.1631C94.822 25.2052 94.9378 25.2579 95.0431 25.321C95.0642 25.1736 95.0326 25.0894 94.9483 25.0683C94.8641 25.0262 94.8325 24.9209 94.8536 24.7525C95.2116 24.6472 95.5274 24.5208 95.8012 24.3734C96.096 24.226 96.4013 24.0891 96.7172 23.9628C96.9278 24.1944 97.1384 24.4471 97.3489 24.7209C97.5595 24.9736 97.8438 25.1104 98.2018 25.1315C98.3281 25.4053 98.4755 25.6158 98.644 25.7632C98.8335 25.8896 99.0125 26.0159 99.181 26.1423C99.3705 26.2686 99.5284 26.4266 99.6548 26.6161C99.7811 26.7845 99.8548 27.0583 99.8759 27.4373C99.7916 27.6058 99.6864 27.7953 99.56 28.0059C99.4547 28.1954 99.36 28.4376 99.2757 28.7324C98.7703 29.1957 98.2544 29.6063 97.728 29.9643C97.2226 30.3012 96.6961 30.6276 96.1486 30.9435C95.6222 31.2593 95.0747 31.5857 94.5061 31.9227C93.9586 32.2596 93.4006 32.6492 92.832 33.0914C92.7057 33.2809 92.5477 33.4494 92.3582 33.5968C92.1687 33.7442 91.9686 33.8916 91.7581 34.039C91.5685 34.1653 91.379 34.3022 91.1895 34.4496C91.021 34.597 90.8842 34.776 90.7789 34.9866C90.6946 34.9866 90.6209 34.9971 90.5578 35.0182C90.4946 35.0182 90.4209 35.0287 90.3367 35.0498C90.2524 35.2182 90.1261 35.3551 89.9576 35.4604C89.8102 35.5657 89.7049 35.7026 89.6418 35.871C90.0208 36.6923 90.5157 37.3135 91.1263 37.7346C91.737 38.1558 92.4214 38.4611 93.1795 38.6507C93.9376 38.8402 94.7588 38.9455 95.6432 38.9665C96.5277 38.9876 97.4437 38.9981 98.3913 38.9981C98.4966 38.977 98.5387 38.9244 98.5176 38.8402C98.5176 38.7349 98.5808 38.6928 98.7072 38.7138C99.023 38.8191 99.2863 38.9455 99.4968 39.0929C99.7074 39.2403 99.9075 39.3982 100.097 39.5667C100.287 39.7351 100.465 39.9141 100.634 40.1036C100.823 40.2721 101.034 40.4511 101.266 40.6406C101.224 41.6303 100.929 42.4411 100.381 43.0728C99.8548 43.6835 99.1494 44.1783 98.2649 44.5574C97.0436 44.5995 95.9802 44.5679 95.0747 44.4626C94.1692 44.3573 93.2742 44.1257 92.3898 43.7677C92.3266 43.7467 92.2635 43.6835 92.2003 43.5782C92.1582 43.4729 92.1161 43.3992 92.0739 43.3571C91.9055 43.2518 91.716 43.2097 91.5054 43.2307C91.2948 43.2518 91.1158 43.2307 90.9684 43.1676C90.7789 43.0833 90.463 42.8938 90.0208 42.599C89.5996 42.3042 89.2101 42.0304 88.8521 41.7777C88.4099 41.4198 87.9782 41.0723 87.557 40.7354C87.1569 40.3774 86.7989 39.9878 86.4831 39.5667C86.4199 39.4614 86.3251 39.4087 86.1988 39.4087C86.0935 39.4087 85.9882 39.3771 85.8829 39.314C85.1459 39.7772 84.5247 40.3563 84.0193 41.0512C83.535 41.7251 83.0612 42.42 82.5979 43.136C82.1346 43.8309 81.6398 44.4942 81.1133 45.1259C80.6079 45.7366 79.9657 46.2104 79.1865 46.5473C78.9549 46.5473 78.7548 46.5052 78.5864 46.421C78.4179 46.3578 78.26 46.2631 78.1126 46.1367C77.9652 46.0314 77.8178 45.9261 77.6704 45.8209C77.523 45.7156 77.3545 45.6419 77.165 45.5997C77.165 45.3049 77.1018 45.0312 76.9755 44.7785C76.8702 44.5047 76.7543 44.2626 76.628 44.052C76.5227 43.8204 76.4385 43.5992 76.3753 43.3887C76.3332 43.1781 76.3964 42.9675 76.5648 42.7569C76.3332 42.5674 76.1121 42.4095 75.9015 42.2831C76.0489 42.1357 76.1121 41.9988 76.091 41.8725C76.091 41.7462 76.0594 41.6198 75.9963 41.4935C75.9331 41.3671 75.8804 41.2408 75.8383 41.1144C75.8173 40.967 75.8594 40.8091 75.9647 40.6406C76.0489 40.6196 76.0805 40.5774 76.0594 40.5143C76.0594 40.4511 76.091 40.3985 76.1542 40.3563ZM119.717 43.0728C119.76 43.6203 119.696 44.073 119.528 44.431C119.359 44.789 119.128 45.0944 118.833 45.347C118.538 45.5997 118.201 45.7998 117.822 45.9472C117.443 46.0946 117.075 46.2315 116.717 46.3578C116.548 46.2525 116.38 46.1472 116.211 46.042C116.064 45.9156 115.885 45.8209 115.674 45.7577C115.401 45.2523 115.137 44.8101 114.885 44.431C114.632 44.0309 114.516 43.5782 114.537 43.0728C114.537 43.0517 114.548 42.9359 114.569 42.7253C114.611 42.5148 114.653 42.2831 114.695 42.0304C114.758 41.7777 114.8 41.5461 114.821 41.3355C114.864 41.1039 114.885 40.9775 114.885 40.9565C114.4 40.9986 113.895 41.1039 113.368 41.2724C112.842 41.4408 112.326 41.6409 111.821 41.8725C111.336 42.1041 110.873 42.3358 110.431 42.5674C110.01 42.799 109.662 42.9991 109.389 43.1676C109.389 43.2307 109.346 43.3887 109.262 43.6414C109.178 43.873 109.073 44.1257 108.946 44.3994C108.82 44.6521 108.683 44.8838 108.536 45.0944C108.388 45.3049 108.241 45.4102 108.093 45.4102C108.115 45.4734 108.146 45.5366 108.188 45.5997C108.23 45.6629 108.23 45.7471 108.188 45.8524C107.893 45.9367 107.63 46.042 107.399 46.1683C107.167 46.3157 106.925 46.4315 106.672 46.5158C106.419 46.621 106.146 46.6737 105.851 46.6737C105.556 46.6737 105.209 46.5684 104.808 46.3578C104.808 46.2315 104.756 46.1262 104.651 46.042C104.545 45.9367 104.429 45.8524 104.303 45.7893C104.198 45.705 104.103 45.6419 104.019 45.5997C103.935 45.5366 103.892 45.4839 103.892 45.4418C103.787 45.4629 103.745 45.3892 103.766 45.2207C103.787 45.0522 103.871 45.0101 104.019 45.0944C103.787 44.7995 103.64 44.5469 103.577 44.3363C103.534 44.1046 103.419 43.8204 103.229 43.4834C103.271 43.4413 103.313 43.3676 103.355 43.2623C103.377 43.157 103.398 43.0623 103.419 42.978C103.44 42.8938 103.471 42.8306 103.513 42.7885C103.556 42.7464 103.608 42.7569 103.671 42.8201C103.629 42.6306 103.629 42.4727 103.671 42.3463C103.713 42.22 103.756 42.1041 103.798 41.9988C103.84 41.8936 103.871 41.7883 103.892 41.683C103.914 41.5777 103.882 41.4619 103.798 41.3355C104.135 40.8723 104.356 40.3774 104.461 39.8509C104.566 39.3034 104.629 38.8086 104.651 38.3664C104.798 38.219 104.924 38.0084 105.03 37.7346C105.156 37.4609 105.251 37.1871 105.314 36.9134C105.377 36.6186 105.398 36.3448 105.377 36.0921C105.377 35.8184 105.345 35.5973 105.282 35.4288C105.303 35.3235 105.419 35.2919 105.63 35.334C105.756 34.6391 105.84 33.86 105.882 32.9966C105.946 32.1122 106.04 31.2804 106.167 30.5013C106.293 29.7011 106.504 29.0062 106.798 28.4165C107.093 27.8059 107.567 27.4058 108.22 27.2162C108.346 27.6584 108.504 28.048 108.694 28.3849C108.904 28.7219 109.125 29.0483 109.357 29.3641C109.61 29.6589 109.852 29.9643 110.083 30.2802C110.336 30.596 110.568 30.954 110.778 31.3541C110.757 31.7542 110.715 32.2175 110.652 32.7439C110.589 33.2704 110.505 33.8073 110.399 34.3548C110.315 34.9024 110.22 35.4288 110.115 35.9342C110.031 36.4396 109.947 36.8713 109.862 37.2292C109.883 37.3345 109.936 37.3977 110.02 37.4188C110.126 37.4398 110.147 37.5346 110.083 37.703C110.589 37.5767 111.115 37.4609 111.663 37.3556C112.21 37.2503 112.758 37.1345 113.305 37.0081C113.853 36.8818 114.379 36.7449 114.885 36.5975C115.411 36.429 115.895 36.229 116.338 35.9974C116.443 35.1761 116.58 34.3548 116.748 33.5336C116.917 32.7123 116.938 31.87 116.811 31.0066C116.917 30.9224 117.001 30.8171 117.064 30.6908C117.127 30.5644 117.233 30.4802 117.38 30.4381C117.275 30.038 117.233 29.6168 117.254 29.1746C117.275 28.7324 117.348 28.3112 117.475 27.9111C117.622 27.511 117.822 27.1741 118.075 26.9004C118.349 26.6056 118.675 26.416 119.054 26.3318C119.286 26.6687 119.486 27.0372 119.654 27.4373C119.823 27.8164 119.991 28.206 120.16 28.6061C120.349 28.9851 120.539 29.3536 120.728 29.7116C120.939 30.0485 121.202 30.3433 121.518 30.596C121.581 31.2067 121.623 31.8384 121.644 32.4912C121.686 33.144 121.718 33.8073 121.739 34.4812C121.571 35.2814 121.381 36.0605 121.17 36.8186C120.981 37.5556 120.844 38.3453 120.76 39.1876C120.612 39.3561 120.497 39.5456 120.412 39.7562C120.328 39.9668 120.244 40.1879 120.16 40.4195C120.075 40.6301 119.981 40.8407 119.875 41.0512C119.77 41.2408 119.644 41.4092 119.496 41.5566C119.581 41.8093 119.591 42.0515 119.528 42.2831C119.486 42.4937 119.549 42.7569 119.717 43.0728ZM141.991 43.4834C141.865 43.8414 141.675 44.2099 141.423 44.589C141.191 44.9469 140.907 45.2733 140.57 45.5682C140.254 45.8419 139.896 46.0735 139.496 46.2631C139.096 46.4526 138.675 46.5579 138.232 46.5789C137.959 46.5158 137.769 46.4421 137.664 46.3578C137.58 46.2947 137.485 46.2315 137.379 46.1683C137.316 46.1262 137.253 46.0946 137.19 46.0735C137.148 46.0314 137.106 45.9998 137.064 45.9788L136.685 45.8209L136.811 45.4102C136.853 45.2418 136.843 45.1154 136.779 45.0312C136.716 44.9259 136.59 44.789 136.4 44.6206C136.337 44.5574 136.274 44.4942 136.211 44.431C136.148 44.3679 136.095 44.3047 136.053 44.2415L135.516 43.6414L136.369 43.4203C136.895 43.2729 137.243 43.0833 137.411 42.8517C137.601 42.6201 137.674 42.2305 137.632 41.683C137.211 41.5988 136.853 41.5882 136.558 41.6514C136.284 41.7146 136 41.7883 135.705 41.8725C135.326 41.9778 134.937 42.0726 134.537 42.1568C134.158 42.22 133.736 42.2515 133.273 42.2515C133.105 42.2515 132.947 42.2515 132.799 42.2515C132.652 42.2305 132.494 42.2094 132.326 42.1884L132.01 42.1252C131.968 41.8936 131.926 41.7672 131.883 41.7462C131.841 41.704 131.799 41.6619 131.757 41.6198C131.652 41.5145 131.536 41.3776 131.41 41.2092C131.304 41.0197 131.283 40.788 131.346 40.5143C131.241 40.3248 131.178 40.1352 131.157 39.9457C131.031 40.1984 130.936 40.4616 130.873 40.7354L130.746 41.0512L130.43 41.1144C130.388 41.1355 130.357 41.1881 130.336 41.2724C130.315 41.3355 130.304 41.3882 130.304 41.4303L130.146 41.9673C130.104 42.0094 130.062 42.0515 130.02 42.0936C129.978 42.1147 129.936 42.1463 129.893 42.1884C129.851 42.3779 129.799 42.5674 129.735 42.7569C129.672 42.9465 129.609 43.1254 129.546 43.2939C129.441 43.5677 129.346 43.8414 129.262 44.1152C129.199 44.3679 129.177 44.6206 129.199 44.8732L129.072 45.2207C128.967 45.347 128.851 45.4523 128.725 45.5366C128.598 45.5997 128.472 45.6629 128.346 45.7261C128.304 45.7682 128.24 45.8103 128.156 45.8524C128.093 45.8735 128.04 45.8946 127.998 45.9156L127.903 46.2631L127.524 46.3262C127.293 46.3684 127.124 46.3999 127.019 46.421C126.935 46.4421 126.83 46.4526 126.703 46.4526L126.387 46.421C126.156 46.2315 125.977 46.0841 125.85 45.9788C125.724 45.8524 125.577 45.7366 125.408 45.6313C125.219 45.3786 125.113 45.1891 125.092 45.0628C125.071 44.9364 125.05 44.8206 125.029 44.7153C124.987 44.589 124.966 44.4837 124.966 44.3994C124.945 44.3152 124.913 44.252 124.871 44.2099L124.46 43.8309L124.808 43.5466L124.84 43.0096C125.261 41.9357 125.703 40.9038 126.166 39.9141C126.651 38.9244 127.145 37.9136 127.651 36.8818C127.819 36.5449 127.977 36.2079 128.125 35.871C128.293 35.5341 128.461 35.1972 128.63 34.8602C128.609 34.7971 128.598 34.7234 128.598 34.6391C128.598 34.5549 128.619 34.4601 128.662 34.3548C128.893 33.9969 129.083 33.681 129.23 33.4072C129.378 33.1124 129.525 32.8176 129.672 32.5228C129.841 32.1648 130.009 31.8174 130.178 31.4805C130.367 31.1435 130.599 30.7961 130.873 30.4381L131.378 30.217C131.441 30.1959 131.515 30.1749 131.599 30.1538C131.683 30.1117 131.778 30.0906 131.883 30.0906L132.357 30.1538C132.947 29.8801 133.463 29.501 133.905 29.0167C134.347 28.5113 134.8 27.9111 135.263 27.2162L135.579 26.774L135.99 27.0267C136.095 27.0899 136.242 27.1531 136.432 27.2162C136.621 27.2584 136.821 27.311 137.032 27.3742C137.411 27.4584 137.769 27.5532 138.106 27.6584C138.443 27.7637 138.717 27.9217 138.927 28.1323C139.054 28.4692 139.127 28.7219 139.148 28.8903C139.169 29.0588 139.201 29.2273 139.243 29.3957C139.306 29.7537 139.359 30.1117 139.401 30.4697C139.464 30.8277 139.506 31.2278 139.527 31.67C139.633 32.028 139.717 32.3859 139.78 32.7439C139.864 33.0808 139.938 33.4283 140.001 33.7863C140.106 34.2917 140.212 34.7865 140.317 35.2709C140.422 35.7341 140.559 36.1764 140.728 36.5975C140.896 36.5975 141.001 36.608 141.044 36.6291C141.149 36.587 141.254 36.5554 141.359 36.5343C141.486 36.5133 141.623 36.4922 141.77 36.4712L142.118 36.4396L142.244 36.7554C142.265 36.8607 142.37 36.966 142.56 37.0713C142.833 37.0924 143.034 37.1555 143.16 37.2608C143.286 37.3451 143.402 37.4398 143.507 37.5451C143.592 37.6293 143.676 37.6925 143.76 37.7346L144.234 37.9242L143.981 38.398C143.771 38.777 143.465 39.1455 143.065 39.5035C142.686 39.8404 142.254 40.1247 141.77 40.3563C141.791 40.4827 141.802 40.609 141.802 40.7354C141.823 40.8407 141.854 40.9565 141.896 41.0828C141.96 41.4408 142.012 41.8093 142.054 42.1884C142.096 42.5674 142.096 42.957 142.054 43.3571L141.991 43.4834ZM132.863 38.0189C133.494 37.9768 134.063 37.9347 134.568 37.8926C135.095 37.8294 135.674 37.7346 136.306 37.6083C136.158 36.9766 136 36.3238 135.832 35.6499C135.663 34.955 135.484 34.2706 135.295 33.5968L135.105 33.9126C134.684 34.3548 134.273 34.8497 133.873 35.3972C133.494 35.9447 133.168 36.4606 132.894 36.945C132.768 37.1345 132.641 37.324 132.515 37.5135C132.389 37.703 132.273 37.8926 132.168 38.0821C132.294 38.061 132.41 38.0505 132.515 38.0505C132.641 38.0505 132.757 38.04 132.863 38.0189ZM163.349 30.9435C162.822 30.9435 162.254 30.9856 161.643 31.0698C161.033 31.133 160.432 31.2067 159.843 31.2909C159.422 31.3541 159.011 31.4067 158.611 31.4489C158.232 31.491 157.884 31.5226 157.569 31.5436C157.421 32.0069 157.274 32.4175 157.126 32.7755C156.979 33.1335 156.821 33.4809 156.652 33.8179C156.484 34.1759 156.326 34.5444 156.179 34.9234C156.052 35.2814 155.926 35.671 155.8 36.0921C155.589 36.429 155.41 36.7449 155.263 37.0397C155.136 37.3135 155.031 37.6293 154.947 37.9873C154.694 38.3032 154.505 38.6401 154.378 38.9981C154.252 39.335 154.157 39.6298 154.094 39.8825L153.968 40.2616C153.841 40.3879 153.768 40.4932 153.747 40.5774C153.725 40.6406 153.673 40.7038 153.589 40.767C153.568 40.9986 153.494 41.2302 153.367 41.4619C153.325 41.5672 153.294 41.6725 153.273 41.7777C153.252 41.862 153.241 41.9251 153.241 41.9673C153.241 42.1778 153.188 42.3147 153.083 42.3779C153.104 42.4832 153.104 42.599 153.083 42.7253C153.062 42.8306 153.041 42.9359 153.02 43.0412C152.957 43.2939 152.936 43.494 152.957 43.6414C153.02 43.7256 153.073 43.7993 153.115 43.8625C153.178 43.9256 153.22 44.0099 153.241 44.1152C153.367 44.1994 153.462 44.252 153.525 44.2731C153.61 44.3363 153.736 44.41 153.904 44.4942L154.189 44.8101C154.294 45.4208 154.199 45.9051 153.904 46.2631C153.589 46.6632 153.052 46.8632 152.294 46.8632H151.914C151.809 46.7579 151.746 46.6737 151.725 46.6105C151.556 46.5473 151.42 46.4947 151.314 46.4526C151.209 46.4105 151.114 46.3262 151.03 46.1999C150.756 46.0735 150.535 45.9683 150.367 45.884L150.082 45.7261C150.082 45.4945 150.082 45.3681 150.082 45.347C149.935 45.1575 149.819 44.9469 149.735 44.7153C149.672 44.4837 149.619 44.252 149.577 44.0204C149.535 43.8309 149.482 43.6519 149.419 43.4834C149.377 43.315 149.314 43.1676 149.23 43.0412C149.187 41.8199 149.303 40.788 149.577 39.9457C149.851 39.1034 150.135 38.2927 150.43 37.5135C150.598 37.0924 150.767 36.6712 150.935 36.2501C151.104 35.8078 151.251 35.3551 151.377 34.8918L151.662 34.576C151.809 34.239 151.925 33.9653 152.009 33.7547C152.115 33.5231 152.22 33.2914 152.325 33.0598C152.388 32.9124 152.441 32.7755 152.483 32.6492C152.546 32.5018 152.599 32.3754 152.641 32.2701C152.515 32.2701 152.399 32.2806 152.294 32.3017C152.188 32.3017 152.083 32.3122 151.978 32.3333C151.851 32.3544 151.735 32.3754 151.63 32.3965C151.525 32.3965 151.42 32.3965 151.314 32.3965C151.167 32.3965 151.062 32.3859 150.998 32.3649C150.767 32.4702 150.514 32.5228 150.24 32.5228H149.925C149.861 32.5228 149.798 32.5228 149.735 32.5228C149.693 32.5018 149.651 32.4912 149.609 32.4912C149.398 32.4912 149.23 32.5228 149.103 32.586C148.851 32.586 148.608 32.586 148.377 32.586H148.061C148.019 32.586 147.966 32.5965 147.903 32.6176C147.84 32.6176 147.787 32.6176 147.745 32.6176C147.598 32.6176 147.44 32.607 147.271 32.586C147.103 32.5439 146.924 32.4702 146.734 32.3649C146.482 32.028 146.313 31.849 146.229 31.8279L145.945 31.4489C145.924 31.3225 145.892 31.2067 145.85 31.1014C145.808 30.9751 145.766 30.8382 145.723 30.6908C145.639 30.4802 145.555 30.2591 145.471 30.0275C145.408 29.7748 145.376 29.48 145.376 29.143C145.397 28.9746 145.439 28.8482 145.502 28.764C145.566 28.6798 145.618 28.6061 145.66 28.5429L145.755 28.0691L146.166 28.1007H147.05C147.724 28.1007 148.408 28.0796 149.103 28.0375C149.798 27.9743 150.514 27.9111 151.251 27.848C151.672 27.8059 152.093 27.7637 152.515 27.7216C152.957 27.6795 153.41 27.6374 153.873 27.5953C153.957 27.4058 154.041 27.2268 154.126 27.0583L154.441 26.9004C154.82 26.8793 155.084 26.932 155.231 27.0583C155.4 27.1636 155.536 27.2689 155.642 27.3742C156.105 27.3321 156.568 27.2899 157.032 27.2478C157.516 27.1846 158 27.1109 158.485 27.0267C159.2 26.9214 159.916 26.8267 160.632 26.7424C161.369 26.6582 162.075 26.6161 162.749 26.6161C163.044 26.6161 163.328 26.6266 163.602 26.6477C163.875 26.6687 164.128 26.7003 164.36 26.7424L164.676 26.9635C164.739 27.0899 164.823 27.2057 164.928 27.311C165.055 27.4163 165.181 27.5216 165.307 27.6269C165.56 27.8585 165.813 28.1323 166.065 28.4481C166.318 28.764 166.413 29.2273 166.35 29.8379C166.181 30.0906 166.055 30.238 165.971 30.2802L165.686 30.6592L165.37 30.6276C165.244 30.6276 165.128 30.6487 165.023 30.6908C164.918 30.7118 164.812 30.7434 164.707 30.7855C164.623 30.8277 164.539 30.8698 164.454 30.9119C164.37 30.9329 164.275 30.954 164.17 30.9751C163.981 30.9751 163.823 30.9751 163.696 30.9751C163.591 30.954 163.475 30.9435 163.349 30.9435ZM168.882 42.8517C168.65 43.694 168.439 44.3363 168.25 44.7785C168.081 45.1996 167.818 45.6419 167.46 46.1051C167.186 46.063 166.997 46.0946 166.892 46.1999C166.786 46.3052 166.671 46.3999 166.544 46.4842C166.355 46.5263 166.218 46.5263 166.134 46.4842C166.049 46.4421 165.976 46.3894 165.912 46.3262C165.849 46.2841 165.765 46.2315 165.66 46.1683C165.576 46.1262 165.439 46.1051 165.249 46.1051C165.207 45.9367 165.154 45.7787 165.091 45.6313C165.049 45.4839 164.912 45.4313 164.681 45.4734C164.723 45.3049 164.733 45.1681 164.712 45.0628C164.691 44.9364 164.66 44.8311 164.617 44.7469C164.596 44.6416 164.575 44.5469 164.554 44.4626C164.533 44.3573 164.544 44.231 164.586 44.0836C164.481 44.0836 164.396 44.0099 164.333 43.8625C164.27 43.7151 164.196 43.5677 164.112 43.4203C164.175 43.0412 164.238 42.6832 164.302 42.3463C164.365 42.0094 164.438 41.6935 164.523 41.3987C164.628 41.1039 164.712 40.8091 164.775 40.5143C164.839 40.2195 164.807 39.9141 164.681 39.5983C164.765 39.6614 164.828 39.6509 164.87 39.5667C164.912 39.4614 164.944 39.335 164.965 39.1876C164.986 39.0192 164.996 38.8612 164.996 38.7138C164.996 38.5454 164.986 38.4085 164.965 38.3032C165.175 37.7557 165.344 37.1977 165.47 36.6291C165.618 36.0395 165.744 35.4604 165.849 34.8918C165.976 34.3233 166.102 33.7652 166.228 33.2177C166.355 32.6702 166.523 32.1648 166.734 31.7016C166.965 31.6594 167.218 31.691 167.492 31.7963C167.787 31.8805 167.966 31.9964 168.029 32.1438C168.576 31.7226 169.061 31.2172 169.482 30.6276C169.903 30.0169 170.335 29.4273 170.777 28.8587C171.219 28.2902 171.703 27.7848 172.23 27.3426C172.777 26.9004 173.462 26.6371 174.283 26.5529C174.704 26.8688 175.167 27.1952 175.673 27.5321C176.199 27.848 176.631 28.2691 176.968 28.7956C177.136 28.8798 177.273 28.9746 177.378 29.0799C177.505 29.1641 177.652 29.2588 177.821 29.3641V29.7432C178.073 29.9748 178.273 30.2486 178.421 30.5644C178.589 30.8592 178.737 31.1856 178.863 31.5436C178.989 31.8805 179.116 32.228 179.242 32.586C179.368 32.9229 179.516 33.2493 179.684 33.5652C179.642 33.6705 179.621 33.7652 179.621 33.8495C179.621 33.9126 179.632 33.9863 179.653 34.0706C179.695 34.1548 179.726 34.239 179.747 34.3233C179.769 34.4075 179.769 34.5233 179.747 34.6707C179.684 35.5973 179.379 36.3448 178.831 36.9134C178.305 37.4819 177.663 37.9557 176.905 38.3348C176.147 38.6928 175.336 38.9981 174.472 39.2508C173.609 39.5035 172.83 39.7772 172.135 40.0721C172.135 40.1563 172.167 40.1984 172.23 40.1984C172.314 40.1984 172.346 40.251 172.325 40.3563C172.83 40.6722 173.23 40.9249 173.525 41.1144C173.82 41.3039 174.093 41.4619 174.346 41.5882C174.62 41.7146 174.904 41.8304 175.199 41.9357C175.515 42.0199 175.947 42.1252 176.494 42.2515C177.042 42.3779 177.463 42.4832 177.758 42.5674C178.073 42.6306 178.358 42.6938 178.61 42.7569C178.863 42.799 179.116 42.8412 179.368 42.8833C179.642 42.9043 180.021 42.9359 180.506 42.978C180.695 43.1676 180.853 43.3992 180.979 43.6729C181.127 43.9256 181.222 44.1889 181.264 44.4626C181.306 44.7153 181.316 44.968 181.295 45.2207C181.274 45.4523 181.2 45.6419 181.074 45.7893C181.095 45.8524 181.137 45.884 181.2 45.884C181.285 45.863 181.369 45.863 181.453 45.884C181.327 45.9683 181.222 46.0735 181.137 46.1999C181.053 46.3262 180.969 46.4526 180.885 46.5789C180.8 46.7053 180.706 46.8106 180.6 46.8948C180.495 47.0001 180.348 47.0633 180.158 47.0843C179.505 47.337 178.684 47.3475 177.694 47.1159C176.705 46.9053 175.452 46.5052 173.936 45.9156C173.177 45.6208 172.556 45.3681 172.072 45.1575C171.609 44.9259 171.198 44.7048 170.84 44.4942C170.503 44.2626 170.187 44.0204 169.892 43.7677C169.619 43.515 169.282 43.2097 168.882 42.8517ZM173.399 32.0174C173.167 32.3544 172.904 32.6597 172.609 32.9334C172.335 33.2072 172.061 33.4915 171.788 33.7863C171.535 34.06 171.303 34.3759 171.093 34.7339C170.882 35.0708 170.735 35.4709 170.65 35.9342C171.388 35.85 172.156 35.6499 172.956 35.334C173.757 34.9971 174.515 34.6812 175.231 34.3864C175.146 33.7336 174.915 33.2072 174.536 32.8071C174.178 32.407 173.799 32.1438 173.399 32.0174ZM190.903 43.9256C191.008 44.5574 190.966 45.0522 190.776 45.4102C190.608 45.7682 190.355 46.0314 190.018 46.1999C189.702 46.3894 189.334 46.4947 188.913 46.5158C188.492 46.5368 188.091 46.5158 187.712 46.4526C187.502 46.1578 187.312 45.7893 187.144 45.347C186.975 44.9048 186.817 44.4521 186.67 43.9888C186.523 43.5045 186.386 43.0307 186.259 42.5674C186.154 42.1041 186.059 41.6935 185.975 41.3355C186.08 41.0828 186.144 40.7986 186.165 40.4827C186.207 40.1458 186.228 39.8088 186.228 39.4719C186.249 39.135 186.259 38.7981 186.259 38.4611C186.28 38.1031 186.312 37.7662 186.354 37.4504C186.502 36.5659 186.712 35.7236 186.986 34.9234C187.281 34.1232 187.512 33.2914 187.681 32.4281C187.723 32.2385 187.702 32.0595 187.618 31.8911C187.554 31.7226 187.544 31.5647 187.586 31.4173C187.607 31.333 187.67 31.2804 187.776 31.2593C187.881 31.2172 187.944 31.1435 187.965 31.0382C188.028 30.8066 188.039 30.6171 187.997 30.4697C187.976 30.3223 188.018 30.1433 188.123 29.9327C188.228 29.7642 188.355 29.5221 188.502 29.2062C188.671 28.8693 188.734 28.5218 188.692 28.1638C188.881 28.0375 189.06 27.8901 189.229 27.7216C189.397 27.5532 189.565 27.4058 189.734 27.2794C189.923 27.132 190.124 27.0057 190.334 26.9004C190.566 26.7951 190.839 26.7424 191.155 26.7424C191.324 26.953 191.429 27.1846 191.471 27.4373C191.534 27.69 191.587 27.9427 191.629 28.1954C191.692 28.4481 191.777 28.6903 191.882 28.9219C191.987 29.1325 192.166 29.301 192.419 29.4273C192.419 29.5958 192.419 29.8064 192.419 30.059C192.419 30.3117 192.429 30.5644 192.45 30.8171C192.471 31.0488 192.514 31.2699 192.577 31.4805C192.661 31.67 192.787 31.7963 192.956 31.8595C192.577 32.8703 192.219 33.8705 191.882 34.8602C191.566 35.85 191.303 36.8502 191.092 37.861C190.882 38.8507 190.745 39.8509 190.682 40.8617C190.639 41.8725 190.713 42.8938 190.903 43.9256ZM217.409 24.9104C217.535 25.0789 217.662 25.2894 217.788 25.5421C217.914 25.7948 217.925 26.0265 217.82 26.237C218.199 26.6161 218.494 27.0794 218.704 27.6269C218.936 28.1744 218.915 28.7745 218.641 29.4273C218.157 29.5958 217.725 29.7326 217.346 29.8379C216.988 29.9222 216.598 30.0275 216.177 30.1538C215.377 30.1959 214.872 30.2275 214.661 30.2486C214.471 30.2696 214.324 30.2907 214.219 30.3117C214.113 30.3328 213.945 30.3749 213.713 30.4381C213.503 30.4802 213.029 30.5539 212.292 30.6592C212.292 30.575 212.281 30.5223 212.26 30.5013C212.26 30.4802 212.239 30.4802 212.197 30.5013C212.176 30.5223 212.145 30.5434 212.102 30.5644C212.081 30.5855 212.039 30.5855 211.976 30.5644C211.555 30.7118 211.134 30.8277 210.713 30.9119C210.291 30.9751 209.87 31.0382 209.449 31.1014C209.028 31.1646 208.607 31.2488 208.186 31.3541C207.765 31.4383 207.333 31.5857 206.891 31.7963C206.933 31.9016 206.996 31.9858 207.08 32.049C207.164 32.0911 207.249 32.1438 207.333 32.2069C207.438 32.2491 207.533 32.3017 207.617 32.3649C207.701 32.4281 207.765 32.5123 207.807 32.6176C208.396 32.765 208.881 33.0071 209.26 33.3441C209.66 33.6599 210.018 34.0285 210.334 34.4496C210.649 34.8497 210.955 35.2603 211.25 35.6815C211.544 36.1027 211.892 36.4817 212.292 36.8186C212.292 36.945 212.324 37.0397 212.387 37.1029C212.45 37.1661 212.46 37.2819 212.418 37.4504C212.797 37.9347 213.092 38.5138 213.303 39.1876C213.513 39.8615 213.555 40.6406 213.429 41.525C213.155 42.1989 212.829 42.778 212.45 43.2623C212.071 43.7256 211.576 44.2099 210.965 44.7153C210.481 44.9259 210.007 45.0944 209.544 45.2207C209.081 45.326 208.67 45.4945 208.312 45.7261C208.144 45.6208 207.986 45.5787 207.838 45.5997C207.712 45.5997 207.596 45.5787 207.491 45.5366C207.006 45.7471 206.491 45.8946 205.943 45.9788C205.396 46.042 204.816 45.9261 204.206 45.6313C203.764 45.6524 203.311 45.6419 202.848 45.5997C202.405 45.5366 201.995 45.4313 201.616 45.2839C201.237 45.1365 200.91 44.9364 200.636 44.6837C200.384 44.41 200.215 44.073 200.131 43.6729C199.647 43.2729 199.331 42.778 199.183 42.1884C199.036 41.5777 199.11 40.9881 199.405 40.4195C199.531 40.3774 199.626 40.3458 199.689 40.3248C199.773 40.2826 199.878 40.2089 200.005 40.1036C201.121 40.2089 202.258 40.3037 203.416 40.3879C204.595 40.4511 205.848 40.3563 207.175 40.1036C207.217 39.9352 207.291 39.8194 207.396 39.7562C207.522 39.672 207.659 39.5983 207.807 39.5351C207.954 39.4719 208.091 39.4087 208.217 39.3456C208.344 39.2824 208.438 39.1876 208.502 39.0613C208.502 38.9349 208.47 38.8507 208.407 38.8086C208.344 38.7454 208.28 38.6928 208.217 38.6507C208.154 38.5875 208.091 38.5243 208.028 38.4611C207.986 38.398 207.975 38.2927 207.996 38.1453C207.722 38.1453 207.396 38.0505 207.017 37.861C206.659 37.6715 206.375 37.4609 206.164 37.2292C205.238 37.0608 204.311 36.7449 203.385 36.2816C202.479 35.8184 201.595 35.3867 200.731 34.9866C200.584 34.7339 200.415 34.5023 200.226 34.2917C200.057 34.06 199.889 33.8284 199.72 33.5968C199.552 33.3441 199.405 33.0914 199.278 32.8387C199.173 32.586 199.11 32.3122 199.089 32.0174C199.11 31.6805 199.131 31.3646 199.152 31.0698C199.173 30.754 199.194 30.4486 199.215 30.1538C199.236 29.8379 199.268 29.5221 199.31 29.2062C199.352 28.8693 199.415 28.5113 199.499 28.1323C200.405 26.8898 201.531 25.8475 202.879 25.0052C204.248 24.1418 205.648 23.4363 207.08 22.8888C207.312 23.1205 207.543 23.3732 207.775 23.6469C208.007 23.8996 208.249 24.1418 208.502 24.3734C208.754 24.6051 209.017 24.8051 209.291 24.9736C209.586 25.142 209.912 25.2368 210.27 25.2579C210.502 25.1947 210.681 25.1526 210.807 25.1315C210.934 25.1104 211.05 25.0999 211.155 25.0999C211.26 25.0999 211.397 25.0999 211.565 25.0999C211.734 25.0999 211.976 25.0789 212.292 25.0367C212.608 24.9946 212.913 24.9736 213.208 24.9736C213.503 24.9736 213.777 24.963 214.029 24.942C214.556 24.8999 214.935 24.8578 215.166 24.8156C215.419 24.7735 215.588 24.7419 215.672 24.7209C215.756 24.6998 215.798 24.6893 215.798 24.6893C215.798 24.6682 215.83 24.6682 215.893 24.6893C215.977 24.6893 216.125 24.7103 216.335 24.7525C216.546 24.7946 216.904 24.8472 217.409 24.9104ZM239.083 24.9104C239.209 25.0789 239.335 25.2894 239.462 25.5421C239.588 25.7948 239.599 26.0265 239.493 26.237C239.872 26.6161 240.167 27.0794 240.378 27.6269C240.609 28.1744 240.588 28.7745 240.315 29.4273C239.83 29.5958 239.398 29.7326 239.019 29.8379C238.661 29.9222 238.272 30.0275 237.851 30.1538C237.051 30.1959 236.545 30.2275 236.335 30.2486C236.145 30.2696 235.998 30.2907 235.892 30.3117C235.787 30.3328 235.619 30.3749 235.387 30.4381C235.176 30.4802 234.703 30.5539 233.966 30.6592C233.966 30.575 233.955 30.5223 233.934 30.5013C233.934 30.4802 233.913 30.4802 233.871 30.5013C233.85 30.5223 233.818 30.5434 233.776 30.5644C233.755 30.5855 233.713 30.5855 233.65 30.5644C233.229 30.7118 232.807 30.8277 232.386 30.9119C231.965 30.9751 231.544 31.0382 231.123 31.1014C230.702 31.1646 230.28 31.2488 229.859 31.3541C229.438 31.4383 229.006 31.5857 228.564 31.7963C228.606 31.9016 228.67 31.9858 228.754 32.049C228.838 32.0911 228.922 32.1438 229.006 32.2069C229.112 32.2491 229.206 32.3017 229.291 32.3649C229.375 32.4281 229.438 32.5123 229.48 32.6176C230.07 32.765 230.554 33.0071 230.933 33.3441C231.333 33.6599 231.691 34.0285 232.007 34.4496C232.323 34.8497 232.628 35.2603 232.923 35.6815C233.218 36.1027 233.565 36.4817 233.966 36.8186C233.966 36.945 233.997 37.0397 234.06 37.1029C234.124 37.1661 234.134 37.2819 234.092 37.4504C234.471 37.9347 234.766 38.5138 234.976 39.1876C235.187 39.8615 235.229 40.6406 235.103 41.525C234.829 42.1989 234.503 42.778 234.124 43.2623C233.744 43.7256 233.25 44.2099 232.639 44.7153C232.155 44.9259 231.681 45.0944 231.218 45.2207C230.754 45.326 230.344 45.4945 229.986 45.7261C229.817 45.6208 229.659 45.5787 229.512 45.5997C229.385 45.5997 229.27 45.5787 229.164 45.5366C228.68 45.7471 228.164 45.8946 227.617 45.9788C227.069 46.042 226.49 45.9261 225.879 45.6313C225.437 45.6524 224.984 45.6419 224.521 45.5997C224.079 45.5366 223.668 45.4313 223.289 45.2839C222.91 45.1365 222.584 44.9364 222.31 44.6837C222.057 44.41 221.889 44.073 221.805 43.6729C221.32 43.2729 221.004 42.778 220.857 42.1884C220.71 41.5777 220.783 40.9881 221.078 40.4195C221.205 40.3774 221.299 40.3458 221.362 40.3248C221.447 40.2826 221.552 40.2089 221.678 40.1036C222.794 40.2089 223.932 40.3037 225.09 40.3879C226.269 40.4511 227.522 40.3563 228.849 40.1036C228.891 39.9352 228.964 39.8194 229.07 39.7562C229.196 39.672 229.333 39.5983 229.48 39.5351C229.628 39.4719 229.765 39.4087 229.891 39.3456C230.017 39.2824 230.112 39.1876 230.175 39.0613C230.175 38.9349 230.144 38.8507 230.08 38.8086C230.017 38.7454 229.954 38.6928 229.891 38.6507C229.828 38.5875 229.765 38.5243 229.701 38.4611C229.659 38.398 229.649 38.2927 229.67 38.1453C229.396 38.1453 229.07 38.0505 228.691 37.861C228.333 37.6715 228.048 37.4609 227.838 37.2292C226.911 37.0608 225.985 36.7449 225.058 36.2816C224.153 35.8184 223.268 35.3867 222.405 34.9866C222.257 34.7339 222.089 34.5023 221.899 34.2917C221.731 34.06 221.562 33.8284 221.394 33.5968C221.226 33.3441 221.078 33.0914 220.952 32.8387C220.847 32.586 220.783 32.3122 220.762 32.0174C220.783 31.6805 220.804 31.3646 220.825 31.0698C220.847 30.754 220.868 30.4486 220.889 30.1538C220.91 29.8379 220.941 29.5221 220.983 29.2062C221.026 28.8693 221.089 28.5113 221.173 28.1323C222.078 26.8898 223.205 25.8475 224.553 25.0052C225.921 24.1418 227.322 23.4363 228.754 22.8888C228.985 23.1205 229.217 23.3732 229.449 23.6469C229.68 23.8996 229.922 24.1418 230.175 24.3734C230.428 24.6051 230.691 24.8051 230.965 24.9736C231.26 25.142 231.586 25.2368 231.944 25.2579C232.176 25.1947 232.355 25.1526 232.481 25.1315C232.607 25.1104 232.723 25.0999 232.828 25.0999C232.934 25.0999 233.071 25.0999 233.239 25.0999C233.408 25.0999 233.65 25.0789 233.966 25.0367C234.281 24.9946 234.587 24.9736 234.882 24.9736C235.176 24.9736 235.45 24.963 235.703 24.942C236.229 24.8999 236.608 24.8578 236.84 24.8156C237.093 24.7735 237.261 24.7419 237.345 24.7209C237.43 24.6998 237.472 24.6893 237.472 24.6893C237.472 24.6682 237.503 24.6682 237.566 24.6893C237.651 24.6893 237.798 24.7103 238.009 24.7525C238.219 24.7946 238.577 24.8472 239.083 24.9104ZM260.756 24.9104C260.883 25.0789 261.009 25.2894 261.135 25.5421C261.262 25.7948 261.272 26.0265 261.167 26.237C261.546 26.6161 261.841 27.0794 262.051 27.6269C262.283 28.1744 262.262 28.7745 261.988 29.4273C261.504 29.5958 261.072 29.7326 260.693 29.8379C260.335 29.9222 259.945 30.0275 259.524 30.1538C258.724 30.1959 258.219 30.2275 258.008 30.2486C257.819 30.2696 257.671 30.2907 257.566 30.3117C257.461 30.3328 257.292 30.3749 257.061 30.4381C256.85 30.4802 256.376 30.5539 255.639 30.6592C255.639 30.575 255.629 30.5223 255.608 30.5013C255.608 30.4802 255.587 30.4802 255.544 30.5013C255.523 30.5223 255.492 30.5434 255.45 30.5644C255.429 30.5855 255.386 30.5855 255.323 30.5644C254.902 30.7118 254.481 30.8277 254.06 30.9119C253.639 30.9751 253.217 31.0382 252.796 31.1014C252.375 31.1646 251.954 31.2488 251.533 31.3541C251.112 31.4383 250.68 31.5857 250.238 31.7963C250.28 31.9016 250.343 31.9858 250.427 32.049C250.512 32.0911 250.596 32.1438 250.68 32.2069C250.785 32.2491 250.88 32.3017 250.964 32.3649C251.049 32.4281 251.112 32.5123 251.154 32.6176C251.743 32.765 252.228 33.0071 252.607 33.3441C253.007 33.6599 253.365 34.0285 253.681 34.4496C253.997 34.8497 254.302 35.2603 254.597 35.6815C254.892 36.1027 255.239 36.4817 255.639 36.8186C255.639 36.945 255.671 37.0397 255.734 37.1029C255.797 37.1661 255.808 37.2819 255.766 37.4504C256.145 37.9347 256.439 38.5138 256.65 39.1876C256.861 39.8615 256.903 40.6406 256.776 41.525C256.503 42.1989 256.176 42.778 255.797 43.2623C255.418 43.7256 254.923 44.2099 254.313 44.7153C253.828 44.9259 253.354 45.0944 252.891 45.2207C252.428 45.326 252.017 45.4945 251.659 45.7261C251.491 45.6208 251.333 45.5787 251.185 45.5997C251.059 45.5997 250.943 45.5787 250.838 45.5366C250.354 45.7471 249.838 45.8946 249.29 45.9788C248.743 46.042 248.164 45.9261 247.553 45.6313C247.111 45.6524 246.658 45.6419 246.195 45.5997C245.752 45.5366 245.342 45.4313 244.963 45.2839C244.584 45.1365 244.257 44.9364 243.984 44.6837C243.731 44.41 243.562 44.073 243.478 43.6729C242.994 43.2729 242.678 42.778 242.531 42.1884C242.383 41.5777 242.457 40.9881 242.752 40.4195C242.878 40.3774 242.973 40.3458 243.036 40.3248C243.12 40.2826 243.226 40.2089 243.352 40.1036C244.468 40.2089 245.605 40.3037 246.763 40.3879C247.943 40.4511 249.195 40.3563 250.522 40.1036C250.564 39.9352 250.638 39.8194 250.743 39.7562C250.87 39.672 251.006 39.5983 251.154 39.5351C251.301 39.4719 251.438 39.4087 251.564 39.3456C251.691 39.2824 251.786 39.1876 251.849 39.0613C251.849 38.9349 251.817 38.8507 251.754 38.8086C251.691 38.7454 251.628 38.6928 251.564 38.6507C251.501 38.5875 251.438 38.5243 251.375 38.4611C251.333 38.398 251.322 38.2927 251.343 38.1453C251.07 38.1453 250.743 38.0505 250.364 37.861C250.006 37.6715 249.722 37.4609 249.511 37.2292C248.585 37.0608 247.658 36.7449 246.732 36.2816C245.826 35.8184 244.942 35.3867 244.078 34.9866C243.931 34.7339 243.763 34.5023 243.573 34.2917C243.405 34.06 243.236 33.8284 243.068 33.5968C242.899 33.3441 242.752 33.0914 242.625 32.8387C242.52 32.586 242.457 32.3122 242.436 32.0174C242.457 31.6805 242.478 31.3646 242.499 31.0698C242.52 30.754 242.541 30.4486 242.562 30.1538C242.583 29.8379 242.615 29.5221 242.657 29.2062C242.699 28.8693 242.762 28.5113 242.847 28.1323C243.752 26.8898 244.879 25.8475 246.226 25.0052C247.595 24.1418 248.995 23.4363 250.427 22.8888C250.659 23.1205 250.891 23.3732 251.122 23.6469C251.354 23.8996 251.596 24.1418 251.849 24.3734C252.101 24.6051 252.365 24.8051 252.638 24.9736C252.933 25.142 253.26 25.2368 253.618 25.2579C253.849 25.1947 254.028 25.1526 254.155 25.1315C254.281 25.1104 254.397 25.0999 254.502 25.0999C254.607 25.0999 254.744 25.0999 254.913 25.0999C255.081 25.0999 255.323 25.0789 255.639 25.0367C255.955 24.9946 256.26 24.9736 256.555 24.9736C256.85 24.9736 257.124 24.963 257.376 24.942C257.903 24.8999 258.282 24.8578 258.514 24.8156C258.766 24.7735 258.935 24.7419 259.019 24.7209C259.103 24.6998 259.145 24.6893 259.145 24.6893C259.145 24.6682 259.177 24.6682 259.24 24.6893C259.324 24.6893 259.472 24.7103 259.682 24.7525C259.893 24.7946 260.251 24.8472 260.756 24.9104Z" fill="black"/>
<path d="M40.194 1.47168L63.4504 15.1844L63.7812 15.4014L64.1016 15.6702L64.4668 15.9251C65.759 16.8931 66.8243 18.1314 67.5884 19.5537C68.3525 20.976 68.7969 22.5478 68.8907 24.1596L68.908 24.8625V49.9588C68.908 54.0071 66.6926 57.7316 63.3161 59.5818L39.8736 74.4039C36.4971 76.2575 32.4109 76.2575 28.8483 74.2936L5.78138 59.6954C4.03456 58.7384 2.57662 57.3301 1.55969 55.6174C0.542769 53.9048 0.0041347 51.9506 0 49.9588V24.859C0 21.0484 1.96388 17.5272 5.08541 15.5392L29.0309 1.42C32.4763 -0.481863 36.659 -0.481863 40.194 1.47168ZM43.1708 21.1897C42.7871 20.9499 42.36 20.788 41.9137 20.7133C41.4675 20.6386 41.0109 20.6525 40.57 20.7542C40.1292 20.856 39.7127 21.0435 39.3443 21.3062C38.9759 21.5689 38.6629 21.9016 38.4231 22.2853L31.0086 34.1444V24.1114C31.0085 23.2675 30.6986 22.453 30.1379 21.8224C29.5771 21.1917 37.6281 10.8534 36.79 10.7547V6.22638L26.8462 19.7304C26.1993 20.4873 25.7731 21.029 25.1269 21.6751C24.4808 22.3213 24.1178 23.1976 24.1178 24.1114V51.6746C24.1178 52.5883 24.4808 53.4647 25.1269 54.1108C26.2802 54.7892 26.7654 56.0375 26.7654 56.0375C27.6792 56.0375 35.1758 67.2766 35.8219 66.6304C38.4231 66.6304 31.0086 52.5883 31.0086 51.6746V41.6347L38.4231 53.5006C38.8706 54.2169 39.5656 54.7439 40.376 54.9815C41.1865 55.219 42.056 55.1506 42.8194 54.7892L43.1708 54.5963L43.4981 54.362C44.1568 53.8343 44.5988 53.0833 44.7404 52.2513C44.882 51.4194 44.7134 50.5644 44.2665 49.8485L36.79 37.893L44.2665 25.9374C44.5063 25.5538 44.6682 25.1266 44.7429 24.6804C44.8176 24.2341 44.8037 23.7775 44.7019 23.3367C44.6002 22.8958 44.4126 22.4793 44.1499 22.1109C43.8872 21.7425 43.5545 21.4295 43.1708 21.1897Z" fill="black"/>
<rect x="79.8916" y="53.3164" width="175.633" height="7.76277" rx="3.23449" fill="black"/>
</svg>
