<svg width="40" height="40" viewBox="0 0 40 40" fill="none" xmlns="http://www.w3.org/2000/svg">
<path d="M12.6534 26.8115V15.9519H10.1429V13.1689H16.1175V26.8115H12.6534Z" fill="#EB5757"/>
<path d="M29.1368 16.6914C29.1368 17.8785 28.4946 18.9294 27.4242 19.5133C28.9226 20.136 29.8568 21.44 29.8568 22.9579C29.8568 25.41 27.6771 26.967 24.2714 26.967C20.8656 26.967 18.686 25.4294 18.686 23.0164C18.686 21.4594 19.698 20.136 21.2743 19.5133C20.1261 18.871 19.3866 17.7813 19.3866 16.5942C19.3866 14.4143 21.2939 13.0327 24.252 13.0327C27.249 13.0327 29.1368 14.4534 29.1368 16.6914ZM21.9555 22.6661C21.9555 23.8144 22.7729 24.4566 24.2714 24.4566C25.7699 24.4566 26.6067 23.834 26.6067 22.6661C26.6067 21.5375 25.7699 20.8951 24.2714 20.8951C22.7728 20.8951 21.9555 21.5374 21.9555 22.6661ZM22.3059 16.886C22.3059 17.8593 23.0065 18.4039 24.2714 18.4039C25.5364 18.4039 26.237 17.8591 26.237 16.886C26.237 15.8743 25.5364 15.3098 24.2714 15.3098C23.0063 15.3098 22.3059 15.8743 22.3059 16.886Z" fill="#EB5757"/>
<path d="M35.6212 14.7091C36.1971 16.4088 36.4892 18.1867 36.4892 20C36.4892 29.0921 29.0921 36.4892 19.9999 36.4892C10.9076 36.4892 3.51039 29.0921 3.51039 20C3.51039 10.9076 10.9075 3.51075 19.9998 3.51075C21.8133 3.51075 23.5911 3.80267 25.2907 4.37883V0.709351C23.574 0.238761 21.801 0 19.9999 0C8.97198 0 0 8.97198 0 20C0 31.028 8.97198 40 19.9999 40C31.0278 40 39.9996 31.028 39.9996 20C39.9996 18.199 39.761 16.4259 39.2904 14.7091H35.6212Z" fill="#EB5757"/>
<path d="M34.6232 5.36517V1.53027H31.8656V5.36517H28.0537V8.12254H31.8656V11.9573H34.6232V8.12254H38.4578V5.36517H34.6232Z" fill="#EB5757"/>
</svg>
