<svg width="154" height="34" viewBox="0 0 154 34" fill="none" xmlns="http://www.w3.org/2000/svg">
<path fill-rule="evenodd" clip-rule="evenodd" d="M16.9999 0C21.25 0 25.9722 0.32313 29.1596 2.36111C30.1792 3.01294 30.987 3.82075 31.6388 4.84028C33.6769 8.02778 34 12.75 34 17C34 21.25 33.6769 25.9722 31.6388 29.1597C30.987 30.1793 30.1792 30.9871 29.1596 31.6389C25.9722 33.6769 21.25 34 16.9999 34C12.75 34 8.02777 33.6769 4.84027 31.6389C3.82075 30.9871 3.01294 30.1793 2.36111 29.1597C0.32313 25.9722 0 21.25 0 17C0 12.75 0.32313 8.02778 2.36111 4.84028C3.01294 3.82075 3.82075 3.01294 4.84027 2.36111C8.02777 0.32313 12.75 0 16.9999 0Z" fill="#E8910D"/>
<path d="M7.95312 21.3802V20.3584C7.95312 18.7569 8.77385 17.2672 10.1276 16.4114C11.618 15.4693 13.512 15.447 15.0241 16.3539L21.8777 20.464L19.5409 21.9238C18.1195 22.8118 16.3163 22.8118 14.8949 21.9238C13.4664 21.0314 11.6529 21.0363 10.2291 21.9363L9.63933 22.3091C8.90757 22.7717 7.95312 22.2459 7.95312 21.3802Z" fill="white"/>
<path d="M19.4622 16.3816L17.2891 17.7277L24.7004 22.1986C25.515 22.69 26.554 22.1034 26.554 21.152V20.3307C26.554 18.7137 25.7132 17.213 24.334 16.3687C22.8379 15.4528 20.9534 15.4577 19.4622 16.3816Z" fill="white" fill-opacity="0.8"/>
<path d="M21.9139 14.1668C22.9019 14.1668 23.7028 13.374 23.7028 12.3959C23.7028 11.4179 22.9019 10.625 21.9139 10.625C20.9259 10.625 20.125 11.4179 20.125 12.3959C20.125 13.374 20.9259 14.1668 21.9139 14.1668Z" fill="white" fill-opacity="0.8"/>
<path d="M12.6014 14.1668C13.5894 14.1668 14.3903 13.374 14.3903 12.3959C14.3903 11.4179 13.5894 10.625 12.6014 10.625C11.6134 10.625 10.8125 11.4179 10.8125 12.3959C10.8125 13.374 11.6134 14.1668 12.6014 14.1668Z" fill="white"/>
<path d="M40.5611 26L43.8251 9.2H46.8971L50.6651 19.112L54.4331 9.2H57.5051L60.7691 26H57.0971L55.3451 16.928L51.9131 26H49.4171L45.9851 16.928L44.2331 26H40.5611ZM70.8333 14H74.4333V26H70.8213L70.6533 24.92C70.3573 25.336 69.9813 25.672 69.5253 25.928C69.0773 26.184 68.5533 26.312 67.9533 26.312C67.0573 26.312 66.2173 26.144 65.4333 25.808C64.6573 25.472 63.9733 25.008 63.3813 24.416C62.7893 23.816 62.3253 23.128 61.9893 22.352C61.6613 21.568 61.4973 20.728 61.4973 19.832C61.4973 18.976 61.6533 18.176 61.9653 17.432C62.2773 16.688 62.7133 16.036 63.2733 15.476C63.8413 14.908 64.4933 14.464 65.2293 14.144C65.9733 13.824 66.7693 13.664 67.6173 13.664C68.3053 13.664 68.9293 13.808 69.4893 14.096C70.0573 14.376 70.5613 14.728 71.0013 15.152L70.8333 14ZM67.8573 22.856C68.3533 22.856 68.8053 22.728 69.2133 22.472C69.6213 22.216 69.9453 21.872 70.1853 21.44C70.4253 21.008 70.5453 20.528 70.5453 20C70.5453 19.472 70.4253 18.992 70.1853 18.56C69.9453 18.128 69.6213 17.784 69.2133 17.528C68.8053 17.272 68.3533 17.144 67.8573 17.144C67.3613 17.144 66.9093 17.272 66.5013 17.528C66.1013 17.784 65.7813 18.128 65.5413 18.56C65.3093 18.992 65.1933 19.472 65.1933 20C65.1933 20.528 65.3133 21.008 65.5533 21.44C65.7933 21.872 66.1133 22.216 66.5133 22.472C66.9213 22.728 67.3693 22.856 67.8573 22.856ZM76.8423 26V14H80.4423V14.756C80.8423 14.412 81.2983 14.144 81.8103 13.952C82.3223 13.76 82.8623 13.664 83.4303 13.664C84.2303 13.664 84.9663 13.848 85.6383 14.216C86.3103 14.576 86.8543 15.06 87.2703 15.668C87.6943 15.06 88.2383 14.576 88.9023 14.216C89.5743 13.848 90.3063 13.664 91.0983 13.664C91.9623 13.664 92.7463 13.876 93.4503 14.3C94.1543 14.716 94.7143 15.276 95.1303 15.98C95.5543 16.684 95.7663 17.468 95.7663 18.332V26H92.1663V19.34C92.1663 18.964 92.0743 18.624 91.8903 18.32C91.7063 18.016 91.4623 17.772 91.1583 17.588C90.8543 17.404 90.5143 17.312 90.1383 17.312C89.7623 17.312 89.4183 17.404 89.1063 17.588C88.8023 17.772 88.5583 18.016 88.3743 18.32C88.1903 18.624 88.0983 18.964 88.0983 19.34V26H84.4983V19.34C84.4983 18.964 84.4063 18.624 84.2223 18.32C84.0463 18.016 83.8023 17.772 83.4903 17.588C83.1863 17.404 82.8463 17.312 82.4703 17.312C82.1023 17.312 81.7623 17.404 81.4503 17.588C81.1463 17.772 80.9023 18.016 80.7183 18.32C80.5343 18.624 80.4423 18.964 80.4423 19.34V26H76.8423ZM106.552 14H110.152V26H106.54L106.372 24.92C106.076 25.336 105.7 25.672 105.244 25.928C104.796 26.184 104.272 26.312 103.672 26.312C102.776 26.312 101.936 26.144 101.152 25.808C100.376 25.472 99.6921 25.008 99.1001 24.416C98.5081 23.816 98.0441 23.128 97.7081 22.352C97.3801 21.568 97.2161 20.728 97.2161 19.832C97.2161 18.976 97.3721 18.176 97.6841 17.432C97.9961 16.688 98.4321 16.036 98.9921 15.476C99.5601 14.908 100.212 14.464 100.948 14.144C101.692 13.824 102.488 13.664 103.336 13.664C104.024 13.664 104.648 13.808 105.208 14.096C105.776 14.376 106.28 14.728 106.72 15.152L106.552 14ZM103.576 22.856C104.072 22.856 104.524 22.728 104.932 22.472C105.34 22.216 105.664 21.872 105.904 21.44C106.144 21.008 106.264 20.528 106.264 20C106.264 19.472 106.144 18.992 105.904 18.56C105.664 18.128 105.34 17.784 104.932 17.528C104.524 17.272 104.072 17.144 103.576 17.144C103.08 17.144 102.628 17.272 102.22 17.528C101.82 17.784 101.5 18.128 101.26 18.56C101.028 18.992 100.912 19.472 100.912 20C100.912 20.528 101.032 21.008 101.272 21.44C101.512 21.872 101.832 22.216 102.232 22.472C102.64 22.728 103.088 22.856 103.576 22.856Z" fill="black"/>
<path d="M117.865 26.312C116.753 26.312 115.749 26.044 114.853 25.508C113.965 24.964 113.261 24.248 112.741 23.36C112.221 22.464 111.961 21.488 111.961 20.432H115.561C115.561 20.856 115.665 21.24 115.873 21.584C116.081 21.928 116.357 22.204 116.701 22.412C117.053 22.612 117.441 22.712 117.865 22.712C118.281 22.712 118.661 22.612 119.005 22.412C119.349 22.204 119.625 21.928 119.833 21.584C120.041 21.24 120.145 20.856 120.145 20.432C120.145 20.008 120.061 19.62 119.893 19.268C119.733 18.908 119.437 18.62 119.005 18.404C118.581 18.188 117.969 18.08 117.169 18.08H112.729L114.601 9.2H123.073V12.8H117.529L117.169 14.48L117.937 14.504C119.073 14.552 120.077 14.844 120.949 15.38C121.821 15.916 122.505 16.624 123.001 17.504C123.497 18.384 123.745 19.36 123.745 20.432C123.745 21.232 123.593 21.988 123.289 22.7C122.985 23.412 122.565 24.04 122.029 24.584C121.493 25.12 120.869 25.544 120.157 25.856C119.445 26.16 118.681 26.312 117.865 26.312ZM131.76 26.312C130.672 26.312 129.676 26.044 128.772 25.508C127.868 24.964 127.144 24.24 126.6 23.336C126.056 22.424 125.784 21.416 125.784 20.312C125.784 19.792 125.848 19.28 125.976 18.776C126.104 18.264 126.304 17.776 126.576 17.312L131.256 9.2H135.432L132.456 14.336C133.064 14.408 133.636 14.564 134.172 14.804C134.716 15.036 135.208 15.34 135.648 15.716C136.088 16.084 136.468 16.508 136.788 16.988C137.108 17.468 137.352 17.988 137.52 18.548C137.696 19.108 137.784 19.696 137.784 20.312C137.784 21.136 137.628 21.912 137.316 22.64C137.004 23.36 136.572 23.996 136.02 24.548C135.468 25.1 134.828 25.532 134.1 25.844C133.372 26.156 132.592 26.312 131.76 26.312ZM131.76 22.712C132.224 22.712 132.636 22.6 132.996 22.376C133.364 22.144 133.652 21.848 133.86 21.488C134.076 21.12 134.184 20.736 134.184 20.336C134.184 19.896 134.08 19.492 133.872 19.124C133.664 18.756 133.376 18.464 133.008 18.248C132.648 18.024 132.24 17.912 131.784 17.912C131.304 17.912 130.884 18.028 130.524 18.26C130.164 18.492 129.884 18.792 129.684 19.16C129.484 19.528 129.384 19.92 129.384 20.336C129.384 20.792 129.496 21.2 129.72 21.56C129.952 21.912 130.248 22.192 130.608 22.4C130.968 22.608 131.352 22.712 131.76 22.712ZM139.624 26L147.232 12.8H138.976V9.2H151.408V12.8L143.776 26H139.624Z" fill="#E8910D"/>
</svg>
