<svg width="263" height="76" viewBox="0 0 263 76" fill="none" xmlns="http://www.w3.org/2000/svg">
<path d="M76.1547 40.3563C76.1757 40.2721 76.1863 40.2089 76.1863 40.1668C76.2073 40.1247 76.1757 40.0721 76.0915 40.0089C76.0494 39.8615 76.081 39.7667 76.1863 39.7246C76.2916 39.6825 76.3969 39.6404 76.5021 39.5983C76.6074 38.3348 76.818 37.1871 77.1339 36.1553C77.4708 35.1024 77.8288 34.0811 78.2078 33.0914C78.6079 32.1017 78.9975 31.1119 79.3765 30.1222C79.7766 29.1114 80.103 28.0164 80.3557 26.8372C80.6295 26.5634 80.8506 26.237 81.019 25.858C81.2086 25.479 81.3876 25.0999 81.556 24.7209C81.7455 24.3208 81.9561 23.9417 82.1878 23.5838C82.4405 23.2258 82.7774 22.931 83.1985 22.6993C83.3881 22.7204 83.5565 22.7625 83.7039 22.8257C83.8724 22.8678 84.0303 22.9204 84.1777 22.9836C84.3251 23.0468 84.4831 23.0994 84.6515 23.1415C84.82 23.1837 84.999 23.2047 85.1885 23.2047C85.2727 23.31 85.3464 23.4363 85.4096 23.5838C85.4728 23.7101 85.557 23.8259 85.6623 23.9312L86.2309 23.8364C86.5046 24.0681 86.7468 24.3629 86.9574 24.7209C87.1679 25.0578 87.3153 25.4158 87.3996 25.7948C87.4838 26.1528 87.4733 26.5108 87.368 26.8688C87.2627 27.2057 87.0205 27.4689 86.6415 27.6584C86.6626 27.7848 86.6626 27.8796 86.6415 27.9427C86.6204 28.0059 86.5889 28.0691 86.5467 28.1323C86.5257 28.1744 86.5152 28.227 86.5152 28.2902C86.5152 28.3323 86.5573 28.3955 86.6415 28.4797C86.4099 28.6692 86.1993 28.9114 86.0098 29.2062C85.8202 29.48 85.6623 29.7748 85.536 30.0906C85.4096 30.4065 85.3043 30.7224 85.2201 31.0382C85.1569 31.3541 85.1148 31.6489 85.0937 31.9227C85.7044 31.2909 86.4204 30.7013 87.2416 30.1538C88.0629 29.6063 88.7789 29.0904 89.3895 28.6061C89.8739 28.2691 90.295 27.9533 90.653 27.6584C91.0321 27.3426 91.4111 27.0583 91.7901 26.8056C92.1692 26.5319 92.5588 26.2792 92.9589 26.0475C93.38 25.7948 93.8012 25.5211 94.2223 25.2263C94.4329 25.142 94.5908 25.121 94.6961 25.1631C94.8225 25.2052 94.9383 25.2579 95.0436 25.321C95.0646 25.1736 95.0331 25.0894 94.9488 25.0683C94.8646 25.0262 94.833 24.9209 94.8541 24.7525C95.212 24.6472 95.5279 24.5208 95.8017 24.3734C96.0965 24.226 96.4018 24.0891 96.7177 23.9628C96.9283 24.1944 97.1388 24.4471 97.3494 24.7209C97.56 24.9736 97.8443 25.1104 98.2023 25.1315C98.3286 25.4053 98.476 25.6158 98.6445 25.7632C98.834 25.8896 99.013 26.0159 99.1815 26.1423C99.371 26.2686 99.5289 26.4266 99.6553 26.6161C99.7816 26.7845 99.8553 27.0583 99.8764 27.4373C99.7921 27.6058 99.6868 27.7953 99.5605 28.0059C99.4552 28.1954 99.3604 28.4376 99.2762 28.7324C98.7708 29.1957 98.2549 29.6063 97.7285 29.9643C97.2231 30.3012 96.6966 30.6276 96.1491 30.9435C95.6227 31.2593 95.0752 31.5857 94.5066 31.9227C93.9591 32.2596 93.4011 32.6492 92.8325 33.0914C92.7062 33.2809 92.5482 33.4494 92.3587 33.5968C92.1692 33.7442 91.9691 33.8916 91.7586 34.039C91.569 34.1653 91.3795 34.3022 91.19 34.4496C91.0215 34.597 90.8847 34.776 90.7794 34.9866C90.6951 34.9866 90.6214 34.9971 90.5583 35.0182C90.4951 35.0182 90.4214 35.0287 90.3372 35.0498C90.2529 35.2182 90.1266 35.3551 89.9581 35.4604C89.8107 35.5657 89.7054 35.7026 89.6422 35.871C90.0213 36.6923 90.5161 37.3135 91.1268 37.7346C91.7375 38.1558 92.4219 38.4611 93.18 38.6507C93.938 38.8402 94.7593 38.9455 95.6437 38.9665C96.5282 38.9876 97.4442 38.9981 98.3918 38.9981C98.4971 38.977 98.5392 38.9244 98.5181 38.8402C98.5181 38.7349 98.5813 38.6928 98.7076 38.7138C99.0235 38.8191 99.2867 38.9455 99.4973 39.0929C99.7079 39.2403 99.9079 39.3982 100.097 39.5667C100.287 39.7351 100.466 39.9141 100.634 40.1036C100.824 40.2721 101.035 40.4511 101.266 40.6406C101.224 41.6303 100.929 42.4411 100.382 43.0728C99.8553 43.6835 99.1499 44.1783 98.2654 44.5574C97.0441 44.5995 95.9807 44.5679 95.0752 44.4626C94.1697 44.3573 93.2747 44.1257 92.3903 43.7677C92.3271 43.7467 92.2639 43.6835 92.2008 43.5782C92.1587 43.4729 92.1165 43.3992 92.0744 43.3571C91.906 43.2518 91.7164 43.2097 91.5059 43.2307C91.2953 43.2518 91.1163 43.2307 90.9689 43.1676C90.7794 43.0833 90.4635 42.8938 90.0213 42.599C89.6001 42.3042 89.2106 42.0304 88.8526 41.7777C88.4104 41.4198 87.9787 41.0723 87.5575 40.7354C87.1574 40.3774 86.7994 39.9878 86.4836 39.5667C86.4204 39.4614 86.3256 39.4087 86.1993 39.4087C86.094 39.4087 85.9887 39.3771 85.8834 39.314C85.1464 39.7772 84.5252 40.3563 84.0198 41.0512C83.5355 41.7251 83.0617 42.42 82.5984 43.136C82.1351 43.8309 81.6403 44.4942 81.1138 45.1259C80.6084 45.7366 79.9662 46.2104 79.187 46.5473C78.9554 46.5473 78.7553 46.5052 78.5869 46.421C78.4184 46.3578 78.2605 46.2631 78.1131 46.1367C77.9657 46.0314 77.8183 45.9261 77.6709 45.8209C77.5234 45.7156 77.355 45.6419 77.1655 45.5997C77.1655 45.3049 77.1023 45.0312 76.9759 44.7785C76.8707 44.5047 76.7548 44.2626 76.6285 44.052C76.5232 43.8204 76.439 43.5992 76.3758 43.3887C76.3337 43.1781 76.3969 42.9675 76.5653 42.7569C76.3337 42.5674 76.1126 42.4095 75.902 42.2831C76.0494 42.1357 76.1126 41.9988 76.0915 41.8725C76.0915 41.7462 76.0599 41.6198 75.9968 41.4935C75.9336 41.3671 75.8809 41.2408 75.8388 41.1144C75.8178 40.967 75.8599 40.8091 75.9652 40.6406C76.0494 40.6196 76.081 40.5774 76.0599 40.5143C76.0599 40.4511 76.0915 40.3985 76.1547 40.3563ZM119.718 43.0728C119.76 43.6203 119.697 44.073 119.528 44.431C119.36 44.789 119.128 45.0944 118.833 45.347C118.539 45.5997 118.202 45.7998 117.823 45.9472C117.444 46.0946 117.075 46.2315 116.717 46.3578C116.549 46.2525 116.38 46.1472 116.212 46.042C116.064 45.9156 115.885 45.8209 115.675 45.7577C115.401 45.2523 115.138 44.8101 114.885 44.431C114.632 44.0309 114.517 43.5782 114.538 43.0728C114.538 43.0517 114.548 42.9359 114.569 42.7253C114.611 42.5148 114.654 42.2831 114.696 42.0304C114.759 41.7777 114.801 41.5461 114.822 41.3355C114.864 41.1039 114.885 40.9775 114.885 40.9565C114.401 40.9986 113.895 41.1039 113.369 41.2724C112.843 41.4408 112.327 41.6409 111.821 41.8725C111.337 42.1041 110.874 42.3358 110.431 42.5674C110.01 42.799 109.663 42.9991 109.389 43.1676C109.389 43.2307 109.347 43.3887 109.263 43.6414C109.178 43.873 109.073 44.1257 108.947 44.3994C108.82 44.6521 108.684 44.8838 108.536 45.0944C108.389 45.3049 108.241 45.4102 108.094 45.4102C108.115 45.4734 108.147 45.5366 108.189 45.5997C108.231 45.6629 108.231 45.7471 108.189 45.8524C107.894 45.9367 107.631 46.042 107.399 46.1683C107.167 46.3157 106.925 46.4315 106.673 46.5158C106.42 46.621 106.146 46.6737 105.851 46.6737C105.557 46.6737 105.209 46.5684 104.809 46.3578C104.809 46.2315 104.756 46.1262 104.651 46.042C104.546 45.9367 104.43 45.8524 104.304 45.7893C104.198 45.705 104.104 45.6419 104.019 45.5997C103.935 45.5366 103.893 45.4839 103.893 45.4418C103.788 45.4629 103.746 45.3892 103.767 45.2207C103.788 45.0522 103.872 45.0101 104.019 45.0944C103.788 44.7995 103.64 44.5469 103.577 44.3363C103.535 44.1046 103.419 43.8204 103.23 43.4834C103.272 43.4413 103.314 43.3676 103.356 43.2623C103.377 43.157 103.398 43.0623 103.419 42.978C103.44 42.8938 103.472 42.8306 103.514 42.7885C103.556 42.7464 103.609 42.7569 103.672 42.8201C103.63 42.6306 103.63 42.4727 103.672 42.3463C103.714 42.22 103.756 42.1041 103.798 41.9988C103.84 41.8936 103.872 41.7883 103.893 41.683C103.914 41.5777 103.882 41.4619 103.798 41.3355C104.135 40.8723 104.356 40.3774 104.461 39.8509C104.567 39.3034 104.63 38.8086 104.651 38.3664C104.798 38.219 104.925 38.0084 105.03 37.7346C105.156 37.4609 105.251 37.1871 105.314 36.9134C105.378 36.6186 105.399 36.3448 105.378 36.0921C105.378 35.8184 105.346 35.5973 105.283 35.4288C105.304 35.3235 105.42 35.2919 105.63 35.334C105.757 34.6391 105.841 33.86 105.883 32.9966C105.946 32.1122 106.041 31.2804 106.167 30.5013C106.294 29.7011 106.504 29.0062 106.799 28.4165C107.094 27.8059 107.568 27.4058 108.22 27.2162C108.347 27.6584 108.505 28.048 108.694 28.3849C108.905 28.7219 109.126 29.0483 109.357 29.3641C109.61 29.6589 109.852 29.9643 110.084 30.2802C110.337 30.596 110.568 30.954 110.779 31.3541C110.758 31.7542 110.716 32.2175 110.653 32.7439C110.589 33.2704 110.505 33.8073 110.4 34.3548C110.316 34.9024 110.221 35.4288 110.116 35.9342C110.031 36.4396 109.947 36.8713 109.863 37.2292C109.884 37.3345 109.937 37.3977 110.021 37.4188C110.126 37.4398 110.147 37.5346 110.084 37.703C110.589 37.5767 111.116 37.4609 111.663 37.3556C112.211 37.2503 112.758 37.1345 113.306 37.0081C113.853 36.8818 114.38 36.7449 114.885 36.5975C115.412 36.429 115.896 36.229 116.338 35.9974C116.443 35.1761 116.58 34.3548 116.749 33.5336C116.917 32.7123 116.938 31.87 116.812 31.0066C116.917 30.9224 117.001 30.8171 117.065 30.6908C117.128 30.5644 117.233 30.4802 117.38 30.4381C117.275 30.038 117.233 29.6168 117.254 29.1746C117.275 28.7324 117.349 28.3112 117.475 27.9111C117.623 27.511 117.823 27.1741 118.075 26.9004C118.349 26.6056 118.676 26.416 119.055 26.3318C119.286 26.6687 119.486 27.0372 119.655 27.4373C119.823 27.8164 119.992 28.206 120.16 28.6061C120.35 28.9851 120.539 29.3536 120.729 29.7116C120.939 30.0485 121.202 30.3433 121.518 30.596C121.582 31.2067 121.624 31.8384 121.645 32.4912C121.687 33.144 121.718 33.8073 121.739 34.4812C121.571 35.2814 121.381 36.0605 121.171 36.8186C120.981 37.5556 120.845 38.3453 120.76 39.1876C120.613 39.3561 120.497 39.5456 120.413 39.7562C120.329 39.9668 120.244 40.1879 120.16 40.4195C120.076 40.6301 119.981 40.8407 119.876 41.0512C119.771 41.2408 119.644 41.4092 119.497 41.5566C119.581 41.8093 119.592 42.0515 119.528 42.2831C119.486 42.4937 119.549 42.7569 119.718 43.0728ZM141.992 43.4834C141.865 43.8414 141.676 44.2099 141.423 44.589C141.191 44.9469 140.907 45.2733 140.57 45.5682C140.254 45.8419 139.896 46.0735 139.496 46.2631C139.096 46.4526 138.675 46.5579 138.233 46.5789C137.959 46.5158 137.77 46.4421 137.664 46.3578C137.58 46.2947 137.485 46.2315 137.38 46.1683C137.317 46.1262 137.254 46.0946 137.19 46.0735C137.148 46.0314 137.106 45.9998 137.064 45.9788L136.685 45.8209L136.811 45.4102C136.854 45.2418 136.843 45.1154 136.78 45.0312C136.717 44.9259 136.59 44.789 136.401 44.6206C136.338 44.5574 136.274 44.4942 136.211 44.431C136.148 44.3679 136.095 44.3047 136.053 44.2415L135.516 43.6414L136.369 43.4203C136.896 43.2729 137.243 43.0833 137.412 42.8517C137.601 42.6201 137.675 42.2305 137.633 41.683C137.212 41.5988 136.854 41.5882 136.559 41.6514C136.285 41.7146 136.001 41.7883 135.706 41.8725C135.327 41.9778 134.937 42.0726 134.537 42.1568C134.158 42.22 133.737 42.2515 133.274 42.2515C133.105 42.2515 132.947 42.2515 132.8 42.2515C132.652 42.2305 132.495 42.2094 132.326 42.1884L132.01 42.1252C131.968 41.8936 131.926 41.7672 131.884 41.7462C131.842 41.704 131.8 41.6619 131.758 41.6198C131.652 41.5145 131.536 41.3776 131.41 41.2092C131.305 41.0197 131.284 40.788 131.347 40.5143C131.242 40.3248 131.178 40.1352 131.157 39.9457C131.031 40.1984 130.936 40.4616 130.873 40.7354L130.747 41.0512L130.431 41.1144C130.389 41.1355 130.357 41.1881 130.336 41.2724C130.315 41.3355 130.305 41.3882 130.305 41.4303L130.147 41.9673C130.104 42.0094 130.062 42.0515 130.02 42.0936C129.978 42.1147 129.936 42.1463 129.894 42.1884C129.852 42.3779 129.799 42.5674 129.736 42.7569C129.673 42.9465 129.61 43.1254 129.546 43.2939C129.441 43.5677 129.346 43.8414 129.262 44.1152C129.199 44.3679 129.178 44.6206 129.199 44.8732L129.073 45.2207C128.967 45.347 128.852 45.4523 128.725 45.5366C128.599 45.5997 128.473 45.6629 128.346 45.7261C128.304 45.7682 128.241 45.8103 128.157 45.8524C128.093 45.8735 128.041 45.8946 127.999 45.9156L127.904 46.2631L127.525 46.3262C127.293 46.3684 127.125 46.3999 127.02 46.421C126.935 46.4421 126.83 46.4526 126.704 46.4526L126.388 46.421C126.156 46.2315 125.977 46.0841 125.851 45.9788C125.724 45.8524 125.577 45.7366 125.409 45.6313C125.219 45.3786 125.114 45.1891 125.093 45.0628C125.072 44.9364 125.051 44.8206 125.03 44.7153C124.987 44.589 124.966 44.4837 124.966 44.3994C124.945 44.3152 124.914 44.252 124.872 44.2099L124.461 43.8309L124.808 43.5466L124.84 43.0096C125.261 41.9357 125.703 40.9038 126.167 39.9141C126.651 38.9244 127.146 37.9136 127.651 36.8818C127.82 36.5449 127.978 36.2079 128.125 35.871C128.294 35.5341 128.462 35.1972 128.63 34.8602C128.609 34.7971 128.599 34.7234 128.599 34.6391C128.599 34.5549 128.62 34.4601 128.662 34.3548C128.894 33.9969 129.083 33.681 129.231 33.4072C129.378 33.1124 129.525 32.8176 129.673 32.5228C129.841 32.1648 130.01 31.8174 130.178 31.4805C130.368 31.1435 130.599 30.7961 130.873 30.4381L131.378 30.217C131.442 30.1959 131.515 30.1749 131.6 30.1538C131.684 30.1117 131.779 30.0906 131.884 30.0906L132.358 30.1538C132.947 29.8801 133.463 29.501 133.905 29.0167C134.348 28.5113 134.8 27.9111 135.264 27.2162L135.58 26.774L135.99 27.0267C136.095 27.0899 136.243 27.1531 136.432 27.2162C136.622 27.2584 136.822 27.311 137.033 27.3742C137.412 27.4584 137.77 27.5532 138.106 27.6584C138.443 27.7637 138.717 27.9217 138.928 28.1323C139.054 28.4692 139.128 28.7219 139.149 28.8903C139.17 29.0588 139.201 29.2273 139.244 29.3957C139.307 29.7537 139.359 30.1117 139.402 30.4697C139.465 30.8277 139.507 31.2278 139.528 31.67C139.633 32.028 139.717 32.3859 139.781 32.7439C139.865 33.0808 139.939 33.4283 140.002 33.7863C140.107 34.2917 140.212 34.7865 140.318 35.2709C140.423 35.7341 140.56 36.1764 140.728 36.5975C140.897 36.5975 141.002 36.608 141.044 36.6291C141.149 36.587 141.255 36.5554 141.36 36.5343C141.486 36.5133 141.623 36.4922 141.771 36.4712L142.118 36.4396L142.244 36.7554C142.265 36.8607 142.371 36.966 142.56 37.0713C142.834 37.0924 143.034 37.1555 143.16 37.2608C143.287 37.3451 143.403 37.4398 143.508 37.5451C143.592 37.6293 143.676 37.6925 143.761 37.7346L144.234 37.9242L143.982 38.398C143.771 38.777 143.466 39.1455 143.066 39.5035C142.687 39.8404 142.255 40.1247 141.771 40.3563C141.792 40.4827 141.802 40.609 141.802 40.7354C141.823 40.8407 141.855 40.9565 141.897 41.0828C141.96 41.4408 142.013 41.8093 142.055 42.1884C142.097 42.5674 142.097 42.957 142.055 43.3571L141.992 43.4834ZM132.863 38.0189C133.495 37.9768 134.063 37.9347 134.569 37.8926C135.095 37.8294 135.674 37.7346 136.306 37.6083C136.159 36.9766 136.001 36.3238 135.832 35.6499C135.664 34.955 135.485 34.2706 135.295 33.5968L135.106 33.9126C134.685 34.3548 134.274 34.8497 133.874 35.3972C133.495 35.9447 133.168 36.4606 132.895 36.945C132.768 37.1345 132.642 37.324 132.516 37.5135C132.389 37.703 132.273 37.8926 132.168 38.0821C132.295 38.061 132.41 38.0505 132.516 38.0505C132.642 38.0505 132.758 38.04 132.863 38.0189ZM163.349 30.9435C162.823 30.9435 162.254 30.9856 161.644 31.0698C161.033 31.133 160.433 31.2067 159.843 31.2909C159.422 31.3541 159.011 31.4067 158.611 31.4489C158.232 31.491 157.885 31.5226 157.569 31.5436C157.422 32.0069 157.274 32.4175 157.127 32.7755C156.979 33.1335 156.821 33.4809 156.653 33.8179C156.485 34.1759 156.327 34.5444 156.179 34.9234C156.053 35.2814 155.926 35.671 155.8 36.0921C155.59 36.429 155.411 36.7449 155.263 37.0397C155.137 37.3135 155.032 37.6293 154.947 37.9873C154.695 38.3032 154.505 38.6401 154.379 38.9981C154.252 39.335 154.158 39.6298 154.094 39.8825L153.968 40.2616C153.842 40.3879 153.768 40.4932 153.747 40.5774C153.726 40.6406 153.673 40.7038 153.589 40.767C153.568 40.9986 153.494 41.2302 153.368 41.4619C153.326 41.5672 153.294 41.6725 153.273 41.7777C153.252 41.862 153.242 41.9251 153.242 41.9673C153.242 42.1778 153.189 42.3147 153.084 42.3779C153.105 42.4832 153.105 42.599 153.084 42.7253C153.063 42.8306 153.042 42.9359 153.02 43.0412C152.957 43.2939 152.936 43.494 152.957 43.6414C153.02 43.7256 153.073 43.7993 153.115 43.8625C153.178 43.9256 153.221 44.0099 153.242 44.1152C153.368 44.1994 153.463 44.252 153.526 44.2731C153.61 44.3363 153.736 44.41 153.905 44.4942L154.189 44.8101C154.294 45.4208 154.2 45.9051 153.905 46.2631C153.589 46.6632 153.052 46.8632 152.294 46.8632H151.915C151.81 46.7579 151.746 46.6737 151.725 46.6105C151.557 46.5473 151.42 46.4947 151.315 46.4526C151.21 46.4105 151.115 46.3262 151.031 46.1999C150.757 46.0735 150.536 45.9683 150.367 45.884L150.083 45.7261C150.083 45.4945 150.083 45.3681 150.083 45.347C149.936 45.1575 149.82 44.9469 149.735 44.7153C149.672 44.4837 149.62 44.252 149.578 44.0204C149.535 43.8309 149.483 43.6519 149.42 43.4834C149.377 43.315 149.314 43.1676 149.23 43.0412C149.188 41.8199 149.304 40.788 149.578 39.9457C149.851 39.1034 150.136 38.2927 150.43 37.5135C150.599 37.0924 150.767 36.6712 150.936 36.2501C151.104 35.8078 151.252 35.3551 151.378 34.8918L151.662 34.576C151.81 34.239 151.925 33.9653 152.01 33.7547C152.115 33.5231 152.22 33.2914 152.326 33.0598C152.389 32.9124 152.441 32.7755 152.484 32.6492C152.547 32.5018 152.599 32.3754 152.641 32.2701C152.515 32.2701 152.399 32.2806 152.294 32.3017C152.189 32.3017 152.083 32.3122 151.978 32.3333C151.852 32.3544 151.736 32.3754 151.631 32.3965C151.525 32.3965 151.42 32.3965 151.315 32.3965C151.167 32.3965 151.062 32.3859 150.999 32.3649C150.767 32.4702 150.515 32.5228 150.241 32.5228H149.925C149.862 32.5228 149.799 32.5228 149.735 32.5228C149.693 32.5018 149.651 32.4912 149.609 32.4912C149.399 32.4912 149.23 32.5228 149.104 32.586C148.851 32.586 148.609 32.586 148.377 32.586H148.061C148.019 32.586 147.967 32.5965 147.903 32.6176C147.84 32.6176 147.788 32.6176 147.746 32.6176C147.598 32.6176 147.44 32.607 147.272 32.586C147.103 32.5439 146.924 32.4702 146.735 32.3649C146.482 32.028 146.314 31.849 146.229 31.8279L145.945 31.4489C145.924 31.3225 145.892 31.2067 145.85 31.1014C145.808 30.9751 145.766 30.8382 145.724 30.6908C145.64 30.4802 145.555 30.2591 145.471 30.0275C145.408 29.7748 145.376 29.48 145.376 29.143C145.398 28.9746 145.44 28.8482 145.503 28.764C145.566 28.6798 145.619 28.6061 145.661 28.5429L145.756 28.0691L146.166 28.1007H147.051C147.724 28.1007 148.409 28.0796 149.104 28.0375C149.799 27.9743 150.515 27.9111 151.252 27.848C151.673 27.8059 152.094 27.7637 152.515 27.7216C152.957 27.6795 153.41 27.6374 153.873 27.5953C153.958 27.4058 154.042 27.2268 154.126 27.0583L154.442 26.9004C154.821 26.8793 155.084 26.932 155.232 27.0583C155.4 27.1636 155.537 27.2689 155.642 27.3742C156.105 27.3321 156.569 27.2899 157.032 27.2478C157.516 27.1846 158.001 27.1109 158.485 27.0267C159.201 26.9214 159.917 26.8267 160.633 26.7424C161.37 26.6582 162.075 26.6161 162.749 26.6161C163.044 26.6161 163.328 26.6266 163.602 26.6477C163.876 26.6687 164.129 26.7003 164.36 26.7424L164.676 26.9635C164.739 27.0899 164.823 27.2057 164.929 27.311C165.055 27.4163 165.181 27.5216 165.308 27.6269C165.56 27.8585 165.813 28.1323 166.066 28.4481C166.319 28.764 166.413 29.2273 166.35 29.8379C166.182 30.0906 166.055 30.238 165.971 30.2802L165.687 30.6592L165.371 30.6276C165.245 30.6276 165.129 30.6487 165.023 30.6908C164.918 30.7118 164.813 30.7434 164.708 30.7855C164.623 30.8277 164.539 30.8698 164.455 30.9119C164.371 30.9329 164.276 30.954 164.171 30.9751C163.981 30.9751 163.823 30.9751 163.697 30.9751C163.592 30.954 163.476 30.9435 163.349 30.9435ZM168.882 42.8517C168.65 43.694 168.44 44.3363 168.25 44.7785C168.082 45.1996 167.819 45.6419 167.461 46.1051C167.187 46.063 166.997 46.0946 166.892 46.1999C166.787 46.3052 166.671 46.3999 166.545 46.4842C166.355 46.5263 166.218 46.5263 166.134 46.4842C166.05 46.4421 165.976 46.3894 165.913 46.3262C165.85 46.2841 165.766 46.2315 165.66 46.1683C165.576 46.1262 165.439 46.1051 165.25 46.1051C165.208 45.9367 165.155 45.7787 165.092 45.6313C165.05 45.4839 164.913 45.4313 164.681 45.4734C164.723 45.3049 164.734 45.1681 164.713 45.0628C164.692 44.9364 164.66 44.8311 164.618 44.7469C164.597 44.6416 164.576 44.5469 164.555 44.4626C164.534 44.3573 164.544 44.231 164.586 44.0836C164.481 44.0836 164.397 44.0099 164.334 43.8625C164.27 43.7151 164.197 43.5677 164.113 43.4203C164.176 43.0412 164.239 42.6832 164.302 42.3463C164.365 42.0094 164.439 41.6935 164.523 41.3987C164.628 41.1039 164.713 40.8091 164.776 40.5143C164.839 40.2195 164.807 39.9141 164.681 39.5983C164.765 39.6614 164.828 39.6509 164.871 39.5667C164.913 39.4614 164.944 39.335 164.965 39.1876C164.986 39.0192 164.997 38.8612 164.997 38.7138C164.997 38.5454 164.986 38.4085 164.965 38.3032C165.176 37.7557 165.344 37.1977 165.471 36.6291C165.618 36.0395 165.744 35.4604 165.85 34.8918C165.976 34.3233 166.102 33.7652 166.229 33.2177C166.355 32.6702 166.524 32.1648 166.734 31.7016C166.966 31.6594 167.219 31.691 167.492 31.7963C167.787 31.8805 167.966 31.9964 168.029 32.1438C168.577 31.7226 169.061 31.2172 169.482 30.6276C169.903 30.0169 170.335 29.4273 170.777 28.8587C171.22 28.2902 171.704 27.7848 172.23 27.3426C172.778 26.9004 173.462 26.6371 174.283 26.5529C174.705 26.8688 175.168 27.1952 175.673 27.5321C176.2 27.848 176.631 28.2691 176.968 28.7956C177.137 28.8798 177.274 28.9746 177.379 29.0799C177.505 29.1641 177.653 29.2588 177.821 29.3641V29.7432C178.074 29.9748 178.274 30.2486 178.421 30.5644C178.59 30.8592 178.737 31.1856 178.864 31.5436C178.99 31.8805 179.116 32.228 179.243 32.586C179.369 32.9229 179.516 33.2493 179.685 33.5652C179.643 33.6705 179.622 33.7652 179.622 33.8495C179.622 33.9126 179.632 33.9863 179.653 34.0706C179.695 34.1548 179.727 34.239 179.748 34.3233C179.769 34.4075 179.769 34.5233 179.748 34.6707C179.685 35.5973 179.379 36.3448 178.832 36.9134C178.306 37.4819 177.663 37.9557 176.905 38.3348C176.147 38.6928 175.336 38.9981 174.473 39.2508C173.61 39.5035 172.83 39.7772 172.136 40.0721C172.136 40.1563 172.167 40.1984 172.23 40.1984C172.315 40.1984 172.346 40.251 172.325 40.3563C172.83 40.6722 173.231 40.9249 173.525 41.1144C173.82 41.3039 174.094 41.4619 174.347 41.5882C174.62 41.7146 174.905 41.8304 175.199 41.9357C175.515 42.0199 175.947 42.1252 176.495 42.2515C177.042 42.3779 177.463 42.4832 177.758 42.5674C178.074 42.6306 178.358 42.6938 178.611 42.7569C178.864 42.799 179.116 42.8412 179.369 42.8833C179.643 42.9043 180.022 42.9359 180.506 42.978C180.696 43.1676 180.854 43.3992 180.98 43.6729C181.127 43.9256 181.222 44.1889 181.264 44.4626C181.306 44.7153 181.317 44.968 181.296 45.2207C181.275 45.4523 181.201 45.6419 181.075 45.7893C181.096 45.8524 181.138 45.884 181.201 45.884C181.285 45.863 181.369 45.863 181.454 45.884C181.327 45.9683 181.222 46.0735 181.138 46.1999C181.054 46.3262 180.969 46.4526 180.885 46.5789C180.801 46.7053 180.706 46.8106 180.601 46.8948C180.496 47.0001 180.348 47.0633 180.159 47.0843C179.506 47.337 178.685 47.3475 177.695 47.1159C176.705 46.9053 175.452 46.5052 173.936 45.9156C173.178 45.6208 172.557 45.3681 172.072 45.1575C171.609 44.9259 171.198 44.7048 170.84 44.4942C170.504 44.2626 170.188 44.0204 169.893 43.7677C169.619 43.515 169.282 43.2097 168.882 42.8517ZM173.399 32.0174C173.167 32.3544 172.904 32.6597 172.609 32.9334C172.336 33.2072 172.062 33.4915 171.788 33.7863C171.535 34.06 171.304 34.3759 171.093 34.7339C170.883 35.0708 170.735 35.4709 170.651 35.9342C171.388 35.85 172.157 35.6499 172.957 35.334C173.757 34.9971 174.515 34.6812 175.231 34.3864C175.147 33.7336 174.915 33.2072 174.536 32.8071C174.178 32.407 173.799 32.1438 173.399 32.0174ZM190.903 43.9256C191.008 44.5574 190.966 45.0522 190.777 45.4102C190.608 45.7682 190.356 46.0314 190.019 46.1999C189.703 46.3894 189.334 46.4947 188.913 46.5158C188.492 46.5368 188.092 46.5158 187.713 46.4526C187.502 46.1578 187.313 45.7893 187.144 45.347C186.976 44.9048 186.818 44.4521 186.671 43.9888C186.523 43.5045 186.386 43.0307 186.26 42.5674C186.155 42.1041 186.06 41.6935 185.976 41.3355C186.081 41.0828 186.144 40.7986 186.165 40.4827C186.207 40.1458 186.228 39.8088 186.228 39.4719C186.249 39.135 186.26 38.7981 186.26 38.4611C186.281 38.1031 186.313 37.7662 186.355 37.4504C186.502 36.5659 186.713 35.7236 186.986 34.9234C187.281 34.1232 187.513 33.2914 187.681 32.4281C187.723 32.2385 187.702 32.0595 187.618 31.8911C187.555 31.7226 187.544 31.5647 187.587 31.4173C187.608 31.333 187.671 31.2804 187.776 31.2593C187.881 31.2172 187.945 31.1435 187.966 31.0382C188.029 30.8066 188.039 30.6171 187.997 30.4697C187.976 30.3223 188.018 30.1433 188.124 29.9327C188.229 29.7642 188.355 29.5221 188.503 29.2062C188.671 28.8693 188.734 28.5218 188.692 28.1638C188.882 28.0375 189.061 27.8901 189.229 27.7216C189.398 27.5532 189.566 27.4058 189.734 27.2794C189.924 27.132 190.124 27.0057 190.335 26.9004C190.566 26.7951 190.84 26.7424 191.156 26.7424C191.324 26.953 191.43 27.1846 191.472 27.4373C191.535 27.69 191.588 27.9427 191.63 28.1954C191.693 28.4481 191.777 28.6903 191.882 28.9219C191.988 29.1325 192.167 29.301 192.419 29.4273C192.419 29.5958 192.419 29.8064 192.419 30.059C192.419 30.3117 192.43 30.5644 192.451 30.8171C192.472 31.0488 192.514 31.2699 192.577 31.4805C192.661 31.67 192.788 31.7963 192.956 31.8595C192.577 32.8703 192.219 33.8705 191.882 34.8602C191.566 35.85 191.303 36.8502 191.093 37.861C190.882 38.8507 190.745 39.8509 190.682 40.8617C190.64 41.8725 190.714 42.8938 190.903 43.9256ZM217.41 24.9104C217.536 25.0789 217.662 25.2894 217.789 25.5421C217.915 25.7948 217.925 26.0265 217.82 26.237C218.199 26.6161 218.494 27.0794 218.705 27.6269C218.936 28.1744 218.915 28.7745 218.641 29.4273C218.157 29.5958 217.725 29.7326 217.346 29.8379C216.988 29.9222 216.599 30.0275 216.178 30.1538C215.377 30.1959 214.872 30.2275 214.661 30.2486C214.472 30.2696 214.325 30.2907 214.219 30.3117C214.114 30.3328 213.946 30.3749 213.714 30.4381C213.503 30.4802 213.029 30.5539 212.292 30.6592C212.292 30.575 212.282 30.5223 212.261 30.5013C212.261 30.4802 212.24 30.4802 212.198 30.5013C212.177 30.5223 212.145 30.5434 212.103 30.5644C212.082 30.5855 212.04 30.5855 211.977 30.5644C211.555 30.7118 211.134 30.8277 210.713 30.9119C210.292 30.9751 209.871 31.0382 209.45 31.1014C209.028 31.1646 208.607 31.2488 208.186 31.3541C207.765 31.4383 207.333 31.5857 206.891 31.7963C206.933 31.9016 206.996 31.9858 207.081 32.049C207.165 32.0911 207.249 32.1438 207.333 32.2069C207.439 32.2491 207.533 32.3017 207.618 32.3649C207.702 32.4281 207.765 32.5123 207.807 32.6176C208.397 32.765 208.881 33.0071 209.26 33.3441C209.66 33.6599 210.018 34.0285 210.334 34.4496C210.65 34.8497 210.955 35.2603 211.25 35.6815C211.545 36.1027 211.892 36.4817 212.292 36.8186C212.292 36.945 212.324 37.0397 212.387 37.1029C212.45 37.1661 212.461 37.2819 212.419 37.4504C212.798 37.9347 213.093 38.5138 213.303 39.1876C213.514 39.8615 213.556 40.6406 213.43 41.525C213.156 42.1989 212.829 42.778 212.45 43.2623C212.071 43.7256 211.576 44.2099 210.966 44.7153C210.481 44.9259 210.008 45.0944 209.544 45.2207C209.081 45.326 208.671 45.4945 208.313 45.7261C208.144 45.6208 207.986 45.5787 207.839 45.5997C207.712 45.5997 207.597 45.5787 207.491 45.5366C207.007 45.7471 206.491 45.8946 205.944 45.9788C205.396 46.042 204.817 45.9261 204.206 45.6313C203.764 45.6524 203.311 45.6419 202.848 45.5997C202.406 45.5366 201.995 45.4313 201.616 45.2839C201.237 45.1365 200.911 44.9364 200.637 44.6837C200.384 44.41 200.216 44.073 200.132 43.6729C199.647 43.2729 199.331 42.778 199.184 42.1884C199.037 41.5777 199.11 40.9881 199.405 40.4195C199.531 40.3774 199.626 40.3458 199.689 40.3248C199.774 40.2826 199.879 40.2089 200.005 40.1036C201.121 40.2089 202.258 40.3037 203.417 40.3879C204.596 40.4511 205.849 40.3563 207.175 40.1036C207.218 39.9352 207.291 39.8194 207.397 39.7562C207.523 39.672 207.66 39.5983 207.807 39.5351C207.955 39.4719 208.091 39.4087 208.218 39.3456C208.344 39.2824 208.439 39.1876 208.502 39.0613C208.502 38.9349 208.47 38.8507 208.407 38.8086C208.344 38.7454 208.281 38.6928 208.218 38.6507C208.155 38.5875 208.091 38.5243 208.028 38.4611C207.986 38.398 207.976 38.2927 207.997 38.1453C207.723 38.1453 207.397 38.0505 207.017 37.861C206.659 37.6715 206.375 37.4609 206.165 37.2292C205.238 37.0608 204.312 36.7449 203.385 36.2816C202.48 35.8184 201.595 35.3867 200.732 34.9866C200.584 34.7339 200.416 34.5023 200.226 34.2917C200.058 34.06 199.889 33.8284 199.721 33.5968C199.552 33.3441 199.405 33.0914 199.279 32.8387C199.173 32.586 199.11 32.3122 199.089 32.0174C199.11 31.6805 199.131 31.3646 199.152 31.0698C199.173 30.754 199.194 30.4486 199.216 30.1538C199.237 29.8379 199.268 29.5221 199.31 29.2062C199.352 28.8693 199.416 28.5113 199.5 28.1323C200.405 26.8898 201.532 25.8475 202.88 25.0052C204.248 24.1418 205.649 23.4363 207.081 22.8888C207.312 23.1205 207.544 23.3732 207.776 23.6469C208.007 23.8996 208.249 24.1418 208.502 24.3734C208.755 24.6051 209.018 24.8051 209.292 24.9736C209.587 25.142 209.913 25.2368 210.271 25.2579C210.503 25.1947 210.682 25.1526 210.808 25.1315C210.934 25.1104 211.05 25.0999 211.155 25.0999C211.261 25.0999 211.398 25.0999 211.566 25.0999C211.734 25.0999 211.977 25.0789 212.292 25.0367C212.608 24.9946 212.914 24.9736 213.208 24.9736C213.503 24.9736 213.777 24.963 214.03 24.942C214.556 24.8999 214.935 24.8578 215.167 24.8156C215.42 24.7735 215.588 24.7419 215.672 24.7209C215.756 24.6998 215.799 24.6893 215.799 24.6893C215.799 24.6682 215.83 24.6682 215.893 24.6893C215.978 24.6893 216.125 24.7103 216.336 24.7525C216.546 24.7946 216.904 24.8472 217.41 24.9104ZM239.083 24.9104C239.209 25.0789 239.336 25.2894 239.462 25.5421C239.589 25.7948 239.599 26.0265 239.494 26.237C239.873 26.6161 240.168 27.0794 240.378 27.6269C240.61 28.1744 240.589 28.7745 240.315 29.4273C239.831 29.5958 239.399 29.7326 239.02 29.8379C238.662 29.9222 238.272 30.0275 237.851 30.1538C237.051 30.1959 236.546 30.2275 236.335 30.2486C236.146 30.2696 235.998 30.2907 235.893 30.3117C235.788 30.3328 235.619 30.3749 235.387 30.4381C235.177 30.4802 234.703 30.5539 233.966 30.6592C233.966 30.575 233.956 30.5223 233.934 30.5013C233.934 30.4802 233.913 30.4802 233.871 30.5013C233.85 30.5223 233.819 30.5434 233.777 30.5644C233.755 30.5855 233.713 30.5855 233.65 30.5644C233.229 30.7118 232.808 30.8277 232.387 30.9119C231.966 30.9751 231.544 31.0382 231.123 31.1014C230.702 31.1646 230.281 31.2488 229.86 31.3541C229.439 31.4383 229.007 31.5857 228.565 31.7963C228.607 31.9016 228.67 31.9858 228.754 32.049C228.838 32.0911 228.923 32.1438 229.007 32.2069C229.112 32.2491 229.207 32.3017 229.291 32.3649C229.375 32.4281 229.439 32.5123 229.481 32.6176C230.07 32.765 230.555 33.0071 230.934 33.3441C231.334 33.6599 231.692 34.0285 232.008 34.4496C232.324 34.8497 232.629 35.2603 232.924 35.6815C233.219 36.1027 233.566 36.4817 233.966 36.8186C233.966 36.945 233.998 37.0397 234.061 37.1029C234.124 37.1661 234.135 37.2819 234.092 37.4504C234.471 37.9347 234.766 38.5138 234.977 39.1876C235.187 39.8615 235.23 40.6406 235.103 41.525C234.829 42.1989 234.503 42.778 234.124 43.2623C233.745 43.7256 233.25 44.2099 232.639 44.7153C232.155 44.9259 231.681 45.0944 231.218 45.2207C230.755 45.326 230.344 45.4945 229.986 45.7261C229.818 45.6208 229.66 45.5787 229.512 45.5997C229.386 45.5997 229.27 45.5787 229.165 45.5366C228.681 45.7471 228.165 45.8946 227.617 45.9788C227.07 46.042 226.491 45.9261 225.88 45.6313C225.438 45.6524 224.985 45.6419 224.522 45.5997C224.079 45.5366 223.669 45.4313 223.29 45.2839C222.911 45.1365 222.584 44.9364 222.311 44.6837C222.058 44.41 221.889 44.073 221.805 43.6729C221.321 43.2729 221.005 42.778 220.858 42.1884C220.71 41.5777 220.784 40.9881 221.079 40.4195C221.205 40.3774 221.3 40.3458 221.363 40.3248C221.447 40.2826 221.552 40.2089 221.679 40.1036C222.795 40.2089 223.932 40.3037 225.09 40.3879C226.269 40.4511 227.522 40.3563 228.849 40.1036C228.891 39.9352 228.965 39.8194 229.07 39.7562C229.196 39.672 229.333 39.5983 229.481 39.5351C229.628 39.4719 229.765 39.4087 229.891 39.3456C230.018 39.2824 230.112 39.1876 230.176 39.0613C230.176 38.9349 230.144 38.8507 230.081 38.8086C230.018 38.7454 229.955 38.6928 229.891 38.6507C229.828 38.5875 229.765 38.5243 229.702 38.4611C229.66 38.398 229.649 38.2927 229.67 38.1453C229.397 38.1453 229.07 38.0505 228.691 37.861C228.333 37.6715 228.049 37.4609 227.838 37.2292C226.912 37.0608 225.985 36.7449 225.059 36.2816C224.153 35.8184 223.269 35.3867 222.405 34.9866C222.258 34.7339 222.089 34.5023 221.9 34.2917C221.731 34.06 221.563 33.8284 221.395 33.5968C221.226 33.3441 221.079 33.0914 220.952 32.8387C220.847 32.586 220.784 32.3122 220.763 32.0174C220.784 31.6805 220.805 31.3646 220.826 31.0698C220.847 30.754 220.868 30.4486 220.889 30.1538C220.91 29.8379 220.942 29.5221 220.984 29.2062C221.026 28.8693 221.089 28.5113 221.173 28.1323C222.079 26.8898 223.205 25.8475 224.553 25.0052C225.922 24.1418 227.322 23.4363 228.754 22.8888C228.986 23.1205 229.218 23.3732 229.449 23.6469C229.681 23.8996 229.923 24.1418 230.176 24.3734C230.428 24.6051 230.692 24.8051 230.965 24.9736C231.26 25.142 231.587 25.2368 231.945 25.2579C232.176 25.1947 232.355 25.1526 232.481 25.1315C232.608 25.1104 232.724 25.0999 232.829 25.0999C232.934 25.0999 233.071 25.0999 233.24 25.0999C233.408 25.0999 233.65 25.0789 233.966 25.0367C234.282 24.9946 234.587 24.9736 234.882 24.9736C235.177 24.9736 235.451 24.963 235.703 24.942C236.23 24.8999 236.609 24.8578 236.84 24.8156C237.093 24.7735 237.262 24.7419 237.346 24.7209C237.43 24.6998 237.472 24.6893 237.472 24.6893C237.472 24.6682 237.504 24.6682 237.567 24.6893C237.651 24.6893 237.799 24.7103 238.009 24.7525C238.22 24.7946 238.578 24.8472 239.083 24.9104ZM260.757 24.9104C260.883 25.0789 261.009 25.2894 261.136 25.5421C261.262 25.7948 261.273 26.0265 261.167 26.237C261.546 26.6161 261.841 27.0794 262.052 27.6269C262.283 28.1744 262.262 28.7745 261.989 29.4273C261.504 29.5958 261.073 29.7326 260.694 29.8379C260.336 29.9222 259.946 30.0275 259.525 30.1538C258.725 30.1959 258.219 30.2275 258.009 30.2486C257.819 30.2696 257.672 30.2907 257.566 30.3117C257.461 30.3328 257.293 30.3749 257.061 30.4381C256.85 30.4802 256.377 30.5539 255.64 30.6592C255.64 30.575 255.629 30.5223 255.608 30.5013C255.608 30.4802 255.587 30.4802 255.545 30.5013C255.524 30.5223 255.492 30.5434 255.45 30.5644C255.429 30.5855 255.387 30.5855 255.324 30.5644C254.903 30.7118 254.481 30.8277 254.06 30.9119C253.639 30.9751 253.218 31.0382 252.797 31.1014C252.376 31.1646 251.955 31.2488 251.533 31.3541C251.112 31.4383 250.681 31.5857 250.238 31.7963C250.28 31.9016 250.344 31.9858 250.428 32.049C250.512 32.0911 250.596 32.1438 250.681 32.2069C250.786 32.2491 250.881 32.3017 250.965 32.3649C251.049 32.4281 251.112 32.5123 251.154 32.6176C251.744 32.765 252.228 33.0071 252.607 33.3441C253.007 33.6599 253.365 34.0285 253.681 34.4496C253.997 34.8497 254.302 35.2603 254.597 35.6815C254.892 36.1027 255.24 36.4817 255.64 36.8186C255.64 36.945 255.671 37.0397 255.734 37.1029C255.798 37.1661 255.808 37.2819 255.766 37.4504C256.145 37.9347 256.44 38.5138 256.65 39.1876C256.861 39.8615 256.903 40.6406 256.777 41.525C256.503 42.1989 256.177 42.778 255.798 43.2623C255.419 43.7256 254.924 44.2099 254.313 44.7153C253.829 44.9259 253.355 45.0944 252.892 45.2207C252.428 45.326 252.018 45.4945 251.66 45.7261C251.491 45.6208 251.333 45.5787 251.186 45.5997C251.06 45.5997 250.944 45.5787 250.838 45.5366C250.354 45.7471 249.838 45.8946 249.291 45.9788C248.743 46.042 248.164 45.9261 247.553 45.6313C247.111 45.6524 246.658 45.6419 246.195 45.5997C245.753 45.5366 245.342 45.4313 244.963 45.2839C244.584 45.1365 244.258 44.9364 243.984 44.6837C243.731 44.41 243.563 44.073 243.479 43.6729C242.994 43.2729 242.679 42.778 242.531 42.1884C242.384 41.5777 242.457 40.9881 242.752 40.4195C242.879 40.3774 242.973 40.3458 243.037 40.3248C243.121 40.2826 243.226 40.2089 243.352 40.1036C244.468 40.2089 245.606 40.3037 246.764 40.3879C247.943 40.4511 249.196 40.3563 250.523 40.1036C250.565 39.9352 250.638 39.8194 250.744 39.7562C250.87 39.672 251.007 39.5983 251.154 39.5351C251.302 39.4719 251.439 39.4087 251.565 39.3456C251.691 39.2824 251.786 39.1876 251.849 39.0613C251.849 38.9349 251.818 38.8507 251.754 38.8086C251.691 38.7454 251.628 38.6928 251.565 38.6507C251.502 38.5875 251.439 38.5243 251.375 38.4611C251.333 38.398 251.323 38.2927 251.344 38.1453C251.07 38.1453 250.744 38.0505 250.365 37.861C250.007 37.6715 249.722 37.4609 249.512 37.2292C248.585 37.0608 247.659 36.7449 246.732 36.2816C245.827 35.8184 244.942 35.3867 244.079 34.9866C243.931 34.7339 243.763 34.5023 243.573 34.2917C243.405 34.06 243.237 33.8284 243.068 33.5968C242.9 33.3441 242.752 33.0914 242.626 32.8387C242.521 32.586 242.457 32.3122 242.436 32.0174C242.457 31.6805 242.478 31.3646 242.5 31.0698C242.521 30.754 242.542 30.4486 242.563 30.1538C242.584 29.8379 242.615 29.5221 242.657 29.2062C242.7 28.8693 242.763 28.5113 242.847 28.1323C243.752 26.8898 244.879 25.8475 246.227 25.0052C247.596 24.1418 248.996 23.4363 250.428 22.8888C250.659 23.1205 250.891 23.3732 251.123 23.6469C251.354 23.8996 251.597 24.1418 251.849 24.3734C252.102 24.6051 252.365 24.8051 252.639 24.9736C252.934 25.142 253.26 25.2368 253.618 25.2579C253.85 25.1947 254.029 25.1526 254.155 25.1315C254.281 25.1104 254.397 25.0999 254.503 25.0999C254.608 25.0999 254.745 25.0999 254.913 25.0999C255.082 25.0999 255.324 25.0789 255.64 25.0367C255.956 24.9946 256.261 24.9736 256.556 24.9736C256.85 24.9736 257.124 24.963 257.377 24.942C257.903 24.8999 258.282 24.8578 258.514 24.8156C258.767 24.7735 258.935 24.7419 259.019 24.7209C259.104 24.6998 259.146 24.6893 259.146 24.6893C259.146 24.6682 259.177 24.6682 259.241 24.6893C259.325 24.6893 259.472 24.7103 259.683 24.7525C259.893 24.7946 260.251 24.8472 260.757 24.9104Z" fill="white"/>
<path d="M40.194 1.47168L63.4504 15.1844L63.7812 15.4014L64.1016 15.6702L64.4668 15.9251C65.759 16.8931 66.8243 18.1314 67.5884 19.5537C68.3525 20.976 68.7969 22.5478 68.8907 24.1596L68.908 24.8625V49.9588C68.908 54.0071 66.6926 57.7316 63.3161 59.5818L39.8736 74.4039C36.4971 76.2575 32.4109 76.2575 28.8483 74.2936L5.78138 59.6954C4.03456 58.7384 2.57662 57.3301 1.55969 55.6174C0.542769 53.9048 0.0041347 51.9506 0 49.9588V24.859C0 21.0484 1.96388 17.5272 5.08541 15.5392L29.0309 1.42C32.4763 -0.481863 36.659 -0.481863 40.194 1.47168ZM43.1708 21.1897C42.7871 20.9499 42.36 20.788 41.9137 20.7133C41.4675 20.6386 41.0109 20.6525 40.57 20.7542C40.1292 20.856 39.7127 21.0435 39.3443 21.3062C38.9759 21.5689 38.6629 21.9016 38.4231 22.2853L31.0086 34.1444V24.1114C31.0085 23.2675 30.6986 22.453 30.1379 21.8224C29.5771 21.1917 37.6281 10.8534 36.79 10.7547V6.22638L26.8462 19.7304C26.1993 20.4873 25.7731 21.029 25.1269 21.6751C24.4808 22.3213 24.1178 23.1976 24.1178 24.1114V51.6746C24.1178 52.5883 24.4808 53.4647 25.1269 54.1108C26.2802 54.7892 26.7654 56.0375 26.7654 56.0375C27.6792 56.0375 35.1758 67.2766 35.8219 66.6304C38.4231 66.6304 31.0086 52.5883 31.0086 51.6746V41.6347L38.4231 53.5006C38.8706 54.2169 39.5656 54.7439 40.376 54.9815C41.1865 55.219 42.056 55.1506 42.8194 54.7892L43.1708 54.5963L43.4981 54.362C44.1568 53.8343 44.5988 53.0833 44.7404 52.2513C44.882 51.4194 44.7134 50.5644 44.2665 49.8485L36.79 37.893L44.2665 25.9374C44.5063 25.5538 44.6682 25.1266 44.7429 24.6804C44.8176 24.2341 44.8037 23.7775 44.7019 23.3367C44.6002 22.8958 44.4126 22.4793 44.1499 22.1109C43.8872 21.7425 43.5545 21.4295 43.1708 21.1897Z" fill="white"/>
<rect x="79.8921" y="53.3164" width="175.633" height="7.76277" rx="3.23449" fill="white"/>
</svg>
