<svg width="1697" height="221" viewBox="0 0 1697 221" fill="none" xmlns="http://www.w3.org/2000/svg">
<rect width="1695" height="65.3971" transform="translate(1)" fill="#237F8A"/>
<path fill-rule="evenodd" clip-rule="evenodd" d="M1.23854 168.581L72.063 151.608C142.887 134.635 284.534 99.6923 426.257 97.6588C565.025 94.6289 706.817 122.513 848.605 148.403C990.392 174.293 1132.17 197.191 1273.93 208.121C1412.73 220.05 1554.46 220.011 1625.32 219.992L1696.18 219.972L1695.83 65.3974L1624.96 65.4169C1554.1 65.4364 1412.37 65.4754 1273.6 65.5135C1131.87 65.5525 990.14 65.5915 848.413 65.6305C706.685 65.6695 564.958 65.7084 426.183 65.7466C284.455 65.7856 142.728 65.8245 71.8639 65.844L1.00017 65.8635L1.23854 168.581Z" fill="#237F8A" stroke="#237F8A"/>
</svg>
